STARTFONT 2.1
COMMENT
COMMENT Converted from OpenType font "manrope-extrabold.otf" by "otf2bdf 3.0".
COMMENT
FONT -FreeType-Manrope ExtraBold-Medium-R-Normal--68-490-100-100-P-332-ISO10646-1
SIZE 49 100 100
FONTBOUNDINGBOX 70 88 -3 -17
STARTPROPERTIES 19
FOUNDRY "FreeType"
FAMILY_NAME "Manrope ExtraBold"
WEIGHT_NAME "Medium"
SLANT "R"
SETWIDTH_NAME "Normal"
ADD_STYLE_NAME ""
PIXEL_SIZE 68
POINT_SIZE 490
RESOLUTION_X 100
RESOLUTION_Y 100
SPACING "P"
AVERAGE_WIDTH 332
CHARSET_REGISTRY "ISO10646"
CHARSET_ENCODING "1"
FONT_ASCENT 72
FONT_DESCENT 20
COPYRIGHT "Copyright 2019-2021 The Manrope Project Authors (https://github.com/sharanda/manrope)"
_OTF_FONTFILE "manrope-extrabold.otf"
_OTF_PSNAME "Manrope-ExtraBold"
ENDPROPERTIES
CHARS 191
STARTCHAR 0020
ENCODING 32
SWIDTH 205 0
DWIDTH 14 0
BBX 0 0 0 0
BITMAP
ENDCHAR
STARTCHAR 0021
ENCODING 33
SWIDTH 382 0
DWIDTH 26 0
BBX 9 49 8 0
BITMAP
FF80
FF80
FF80
FF80
FF80
FF80
FF80
FF80
FF80
FF80
FF80
FF80
FF80
FF80
FF80
FF80
FF80
FF80
FF80
FF80
FF80
FF80
FF80
FF80
FF80
FF80
FF80
FF80
FF80
FF80
FF80
FF80
FF80
FF80
FF80
FF80
FF80
0000
0000
0000
0000
FF80
FF80
FF80
FF80
FF80
FF80
FF80
FF80
ENDCHAR
STARTCHAR 0022
ENCODING 34
SWIDTH 484 0
DWIDTH 33 0
BBX 23 12 4 37
BITMAP
FF87FE
FF87FE
FF87FE
FF87FE
FF87FE
FF87FE
FF87FE
FF87FE
FF87FE
FF87FE
FF87FE
FF87FE
ENDCHAR
STARTCHAR 0023
ENCODING 35
SWIDTH 940 0
DWIDTH 64 0
BBX 55 49 4 0
BITMAP
000007FC03FE00
000007FC07FC00
000007FC07FC00
000007FC07FC00
00000FF807FC00
00000FF80FF800
00000FF80FF800
00001FF00FF800
00001FF01FF000
00001FF01FF000
00001FF01FF000
03FFFFFFFFFFFE
03FFFFFFFFFFFE
03FFFFFFFFFFFE
03FFFFFFFFFFFE
07FFFFFFFFFFFC
07FFFFFFFFFFFC
07FFFFFFFFFFFC
07FFFFFFFFFFFC
0FFFFFFFFFFFF8
0000FF80FF8000
0000FF80FF8000
0001FF00FF8000
0001FF01FF0000
0001FF01FF0000
0001FF01FF0000
0003FE01FF0000
3FFFFFFFFFFFE0
3FFFFFFFFFFFE0
3FFFFFFFFFFFE0
7FFFFFFFFFFFC0
7FFFFFFFFFFFC0
7FFFFFFFFFFFC0
7FFFFFFFFFFFC0
FFFFFFFFFFFF80
FFFFFFFFFFFF80
000FF80FF80000
001FF00FF80000
001FF01FF00000
001FF01FF00000
001FF01FF00000
003FE01FF00000
003FE03FE00000
003FE03FE00000
003FC03FE00000
007FC03FE00000
007FC07FC00000
007FC07FC00000
00FF807FC00000
ENDCHAR
STARTCHAR 0024
ENCODING 36
SWIDTH 646 0
DWIDTH 44 0
BBX 38 62 3 -7
BITMAP
0001FF0000
0001FF0000
0001FF0000
0001FF0000
0001FF0000
000FFF0000
003FFFC000
00FFFFF000
03FFFFFC00
07FFFFFE00
0FFFFFFF00
0FFFFFFF80
1FFFFFFFC0
1FFFFFFFE0
3FFF07FFE0
3FF800FFF0
3FF0007FF0
3FE0003FF8
3FE0001FF8
3FE0001FF8
3FE0000FC0
3FE0000000
3FF0000000
3FFC000000
3FFF000000
1FFFE00000
1FFFFE0000
0FFFFFC000
07FFFFF800
03FFFFFE00
01FFFFFF80
007FFFFFC0
000FFFFFE0
0001FFFFF0
00003FFFF0
000007FFF8
0000007FF8
0000001FFC
0000000FFC
0F80000FFC
FF800007FC
FFC00007FC
FFC00007FC
FFE0000FFC
7FF0000FF8
7FF8001FF8
3FFE007FF8
3FFFC3FFF0
1FFFFFFFF0
0FFFFFFFE0
0FFFFFFFC0
07FFFFFF80
01FFFFFF00
00FFFFFE00
003FFFF800
0007FFC000
0001FF0000
0001FF0000
0001FF0000
0001FF0000
0001FF0000
0001FF0000
ENDCHAR
STARTCHAR 0025
ENCODING 37
SWIDTH 896 0
DWIDTH 61 0
BBX 53 51 4 -1
BITMAP
007F0000000000
01FFC000000800
07FFF000001C00
0FFFF800003E00
1FFFFC00007F00
3FFFFC0000FF80
3FFFFE0001FFC0
7FFFFF0003FFE0
7FC1FF0007FFC0
FF80FF000FFF80
FF00FF001FFF00
FF007F803FFE00
FF007F807FFC00
FF007F80FFF800
FF00FF01FFF000
FF80FF03FFE000
7FC3FF07FFC000
7FFFFF0FFF8000
3FFFFE1FFF0000
3FFFFC3FFE0000
1FFFFC7FFC0000
0FFFF8FFF80000
07FFF1FFF00000
01FFC3FFE00000
003E07FFC00000
00000FFF800000
00001FFF03F000
00003FFE1FFC00
00007FFC3FFF00
0000FFF87FFF80
0001FFF0FFFFC0
0003FFE1FFFFE0
0007FFC3FFFFF0
000FFF83FFFFF0
001FFF07FE1FF0
003FFE07FC0FF8
007FFC07F807F8
00FFF807F807F8
01FFF007F007F8
03FFE007F807F8
07FFC007F807F8
0FFF8007FC0FF8
1FFF0007FE1FF8
3FFE0003FFFFF0
1FFC0003FFFFF0
0FF80001FFFFE0
07F00001FFFFC0
03E00000FFFF80
01C000007FFF00
008000001FFE00
0000000007F000
ENDCHAR
STARTCHAR 0026
ENCODING 38
SWIDTH 675 0
DWIDTH 46 0
BBX 42 51 3 -1
BITMAP
0003FE000000
001FFFC00000
007FFFF00000
01FFFFF80000
03FFFFFC0000
07FFFFFE0000
07FFFFFF0000
0FFFFFFF8000
0FFFFFFF8000
1FFE03FF8000
1FF801FFC000
1FF800FE0000
1FF000400000
1FF000000000
1FF000000000
1FF000000000
1FF800000000
1FF800000000
1FFC00000000
0FFE00000000
07FF00000000
07FF80000000
03FFC0000000
03FFE0000000
07FFF807F800
0FFFFC07F800
1FFFFE07F800
3FFFFF07F800
3FFFFF87F800
7FFFFFC7F800
7FE3FFE7F800
7FE1FFF7F800
7FC0FFFFF800
FFC03FFFF800
FFC01FFFF800
FFC00FFFF800
FFC007FFF000
7FC003FFF000
7FE001FFF000
7FE000FFF800
7FF0007FFC00
7FFC01FFFE00
3FFFFFFFFF00
3FFFFFFFFF80
1FFFFFFFFFC0
0FFFFFFFFF80
07FFFFFFFF00
03FFFFFE7F00
01FFFFF83E00
003FFFE01C00
0007FF000800
ENDCHAR
STARTCHAR 0027
ENCODING 39
SWIDTH 279 0
DWIDTH 19 0
BBX 9 12 4 37
BITMAP
FF80
FF80
FF80
FF80
FF80
FF80
FF80
FF80
FF80
FF80
FF80
FF80
ENDCHAR
STARTCHAR 0028
ENCODING 40
SWIDTH 455 0
DWIDTH 31 0
BBX 19 71 9 -13
BITMAP
000C00
000E00
001F00
003FC0
007FE0
007FE0
00FFE0
00FFC0
01FF80
01FF00
03FF00
03FE00
07FE00
07FC00
0FF800
0FF800
0FF800
1FF000
1FF000
1FE000
3FE000
3FE000
3FC000
3FC000
7FC000
7FC000
7FC000
7F8000
7F8000
7F8000
7F8000
7F8000
7F8000
FF8000
FF8000
FF8000
FF8000
FF8000
FF8000
7F8000
7F8000
7F8000
7F8000
7F8000
7FC000
7FC000
7FC000
3FC000
3FC000
3FE000
3FE000
1FE000
1FF000
1FF000
1FF000
0FF800
0FF800
07FC00
07FC00
07FE00
03FF00
03FF00
01FF80
01FFC0
00FFC0
007FE0
007FE0
003FC0
001F80
001E00
000C00
ENDCHAR
STARTCHAR 0029
ENCODING 41
SWIDTH 455 0
DWIDTH 31 0
BBX 19 71 3 -13
BITMAP
020000
070000
1F8000
3F8000
FFC000
FFE000
7FE000
3FF000
3FF000
1FF800
0FF800
0FFC00
07FC00
07FE00
03FE00
03FE00
01FF00
01FF00
00FF00
00FF80
00FF80
007F80
007F80
007FC0
007FC0
003FC0
003FC0
003FC0
003FE0
003FE0
003FE0
003FE0
003FE0
003FE0
003FE0
001FE0
003FE0
003FE0
003FE0
003FE0
003FE0
003FE0
003FE0
003FC0
003FC0
003FC0
007FC0
007FC0
007FC0
007F80
00FF80
00FF80
00FF80
01FF00
01FF00
01FF00
03FE00
03FE00
07FC00
0FFC00
0FF800
1FF800
1FF000
3FF000
7FE000
FFE000
FFC000
7FC000
1F8000
0F0000
060000
ENDCHAR
STARTCHAR 002A
ENCODING 42
SWIDTH 470 0
DWIDTH 32 0
BBX 26 25 2 24
BITMAP
007F8000
007F8000
007F8000
007F8000
007F8000
307F8300
3E3F8F00
3FBFFF80
7FFFFF80
7FFFFF80
7FFFFFC0
FFFFFFC0
FFFFFFC0
0FFFFC00
01FFE000
01FFF000
03FFF800
07FFF800
0FFFFC00
1FF3FE00
1FF3FE00
0FE1FC00
03E0F000
01C0E000
00004000
ENDCHAR
STARTCHAR 002B
ENCODING 43
SWIDTH 573 0
DWIDTH 39 0
BBX 31 31 4 9
BITMAP
000FE000
000FE000
000FE000
000FE000
000FE000
000FE000
000FE000
000FE000
000FE000
000FE000
000FE000
000FE000
FFFFFFFE
FFFFFFFE
FFFFFFFE
FFFFFFFE
FFFFFFFE
FFFFFFFE
FFFFFFFE
000FE000
000FE000
000FE000
000FE000
000FE000
000FE000
000FE000
000FE000
000FE000
000FE000
000FE000
000FE000
ENDCHAR
STARTCHAR 002C
ENCODING 44
SWIDTH 323 0
DWIDTH 22 0
BBX 9 18 4 -10
BITMAP
FF80
FF80
FF80
FF80
FF80
FF80
FF80
FF80
FF80
0780
0780
0780
0F80
0F80
7F00
FF00
FE00
FC00
ENDCHAR
STARTCHAR 002D
ENCODING 45
SWIDTH 426 0
DWIDTH 29 0
BBX 20 7 4 18
BITMAP
FFFFF0
FFFFF0
FFFFF0
FFFFF0
FFFFF0
FFFFF0
FFFFF0
ENDCHAR
STARTCHAR 002E
ENCODING 46
SWIDTH 323 0
DWIDTH 22 0
BBX 10 9 6 0
BITMAP
FFC0
FFC0
FFC0
FFC0
FFC0
FFC0
FFC0
FFC0
FFC0
ENDCHAR
STARTCHAR 002F
ENCODING 47
SWIDTH 440 0
DWIDTH 30 0
BBX 22 49 4 0
BITMAP
0007FC
0007FC
000FFC
000FF8
000FF8
000FF8
001FF8
001FF0
001FF0
001FF0
003FF0
003FE0
003FE0
003FE0
007FE0
007FC0
007FC0
00FFC0
00FF80
00FF80
00FF80
01FF80
01FF00
01FF00
01FF00
03FF00
03FE00
03FE00
03FE00
07FE00
07FC00
07FC00
0FFC00
0FF800
0FF800
0FF800
1FF800
1FF000
1FF000
1FF000
3FF000
3FE000
3FE000
3FE000
7FE000
7FC000
7FC000
FFC000
FF8000
ENDCHAR
STARTCHAR 0030
ENCODING 48
SWIDTH 675 0
DWIDTH 46 0
BBX 36 51 5 -1
BITMAP
0007FC0000
003FFFC000
00FFFFF000
03FFFFF800
07FFFFFE00
0FFFFFFF00
1FFFFFFF00
1FFFFFFF80
3FFFFFFFC0
3FFC03FFC0
7FF801FFE0
7FF000FFE0
FFE0007FE0
FFC0003FF0
FFC0003FF0
FF80003FF0
FF80001FF0
FF80001FF0
FF80001FF0
FF80001FF0
FF80001FF0
FF80001FF0
FF80001FF0
FF80001FF0
FF80001FF0
FF80001FF0
FF80001FF0
FF80001FF0
FF80001FF0
FF80001FF0
FF80001FF0
FF80001FF0
FF80001FF0
FF80001FF0
FF80001FF0
FF80003FF0
FFC0003FF0
FFC0003FF0
FFE0007FE0
7FF000FFE0
7FF801FFE0
3FFC07FFC0
3FFFFFFFC0
1FFFFFFF80
1FFFFFFF00
0FFFFFFF00
07FFFFFE00
03FFFFF800
00FFFFF000
003FFFC000
0007FE0000
ENDCHAR
STARTCHAR 0031
ENCODING 49
SWIDTH 455 0
DWIDTH 31 0
BBX 19 49 4 0
BITMAP
00FFE0
01FFE0
07FFE0
1FFFE0
3FFFE0
FFFFE0
FFFFE0
FFFFE0
FFFFE0
FFFFE0
FFFFE0
FE7FE0
F87FE0
F07FE0
C07FE0
007FE0
007FE0
007FE0
007FE0
007FE0
007FE0
007FE0
007FE0
007FE0
007FE0
007FE0
007FE0
007FE0
007FE0
007FE0
007FE0
007FE0
007FE0
007FE0
007FE0
007FE0
007FE0
007FE0
007FE0
007FE0
007FE0
007FE0
007FE0
007FE0
007FE0
007FE0
007FE0
007FE0
007FE0
ENDCHAR
STARTCHAR 0032
ENCODING 50
SWIDTH 602 0
DWIDTH 41 0
BBX 35 50 3 0
BITMAP
0007FC0000
003FFF8000
00FFFFE000
03FFFFF800
07FFFFFC00
0FFFFFFE00
1FFFFFFF00
1FFFFFFF00
3FFFFFFF80
3FFC07FF80
7FF801FFC0
7FF000FFC0
7FE000FFC0
7FC0007FC0
FFC0007FE0
FFC0007FE0
0000007FE0
0000007FE0
0000007FE0
000000FFC0
000000FFC0
000001FFC0
000003FFC0
000007FF80
00000FFF80
00001FFF00
00003FFE00
00007FFC00
0000FFF800
0003FFF000
0007FFE000
000FFFC000
001FFF8000
003FFF0000
007FFE0000
00FFF80000
01FFF00000
07FFE00000
0FFFC00000
1FFF800000
3FFF000000
7FFFFFFFE0
FFFFFFFFE0
FFFFFFFFE0
FFFFFFFFE0
FFFFFFFFE0
FFFFFFFFE0
FFFFFFFFE0
FFFFFFFFE0
FFFFFFFFE0
ENDCHAR
STARTCHAR 0033
ENCODING 51
SWIDTH 587 0
DWIDTH 40 0
BBX 33 50 3 -1
BITMAP
3FFFFFFF00
3FFFFFFF00
3FFFFFFF00
3FFFFFFF00
3FFFFFFF00
3FFFFFFF00
3FFFFFFF00
3FFFFFFF00
3FFFFFFF00
00000FFE00
00001FFC00
00003FF800
00007FF000
0000FFE000
0003FFC000
0007FF8000
000FFF0000
001FFE0000
003FFE0000
00FFFF8000
007FFFE000
007FFFF000
003FFFF800
003FFFFC00
001FFFFE00
001FFFFE00
00081FFF00
000007FF00
000003FF00
000001FF80
000001FF80
000001FF80
000000FF80
000000FF80
000000FF80
000001FF80
078001FF80
3F8001FF80
FFC003FF00
FFE007FF00
7FF81FFF00
7FFFFFFE00
3FFFFFFC00
3FFFFFFC00
1FFFFFF800
0FFFFFF000
03FFFFE000
01FFFF8000
007FFE0000
000FF00000
ENDCHAR
STARTCHAR 0034
ENCODING 52
SWIDTH 617 0
DWIDTH 42 0
BBX 35 49 3 0
BITMAP
0000FFC000
0001FFC000
0001FF8000
0003FF8000
0003FF0000
0007FF0000
0007FE0000
000FFE0000
000FFC0000
001FFC0000
001FFC0000
003FF80000
003FF80000
003FF00000
007FF00000
007FE00000
00FFE00000
00FFC00000
01FFC00000
01FF800000
03FF800000
03FF03FE00
07FF03FE00
07FE03FE00
0FFE03FE00
0FFE03FE00
1FFC03FE00
1FFC03FE00
3FF803FE00
3FF803FE00
3FF003FE00
7FF003FE00
7FE003FE00
FFFFFFFFE0
FFFFFFFFE0
FFFFFFFFE0
FFFFFFFFE0
FFFFFFFFE0
FFFFFFFFE0
FFFFFFFFE0
FFFFFFFFE0
FFFFFFFFE0
000003FE00
000003FE00
000003FE00
000003FE00
000003FE00
000003FE00
000003FE00
ENDCHAR
STARTCHAR 0035
ENCODING 53
SWIDTH 587 0
DWIDTH 40 0
BBX 33 50 4 -1
BITMAP
1FFFFFF800
1FFFFFF800
1FFFFFF800
3FFFFFF800
3FFFFFF800
3FFFFFF800
3FFFFFF800
3FFFFFF800
3FFFFFF800
3FE0000000
3FE0000000
3FE0000000
3FE0000000
3FE0000000
3FE0000000
3FC0000000
3FC0000000
3FC0000000
3FCFFC0000
3FFFFF8000
7FFFFFC000
7FFFFFF000
7FFFFFF800
7FFFFFF800
7FFFFFFC00
7FFFFFFE00
3FF83FFE00
03C00FFF00
000007FF00
000003FF00
000001FF00
000001FF80
000001FF80
000001FF80
000001FF80
000001FF80
078001FF00
7F8003FF00
FFC007FF00
FFE00FFE00
FFF81FFE00
7FFFFFFC00
7FFFFFFC00
3FFFFFF800
1FFFFFF000
0FFFFFE000
07FFFFC000
01FFFF0000
00FFFC0000
001FE00000
ENDCHAR
STARTCHAR 0036
ENCODING 54
SWIDTH 617 0
DWIDTH 42 0
BBX 34 51 5 -1
BITMAP
0007FE0000
003FFFC000
00FFFFF000
03FFFFF800
07FFFFFE00
0FFFFFFC00
1FFFFFF800
1FFFFFF000
3FFFFFE000
3FFC07C000
7FF8018000
7FE0000000
7FE0000000
FFC0000000
FFC0000000
FF80000000
FF80000000
FF80000000
FF80000000
FF87FF0000
FF9FFFC000
FFBFFFF000
FFFFFFF800
FFFFFFFC00
FFFFFFFE00
FFFFFFFE00
FFFFFFFF00
FFFC0FFF00
FFF007FF80
FFE001FF80
FFC001FF80
FFC000FFC0
FFC000FFC0
FF8000FFC0
FF80007FC0
FF8000FFC0
FF8000FFC0
FFC000FFC0
FFC001FF80
7FE001FF80
7FF003FF80
3FFC0FFF00
3FFFFFFF00
1FFFFFFE00
1FFFFFFC00
0FFFFFFC00
07FFFFF800
03FFFFE000
00FFFFC000
003FFF0000
000FF80000
ENDCHAR
STARTCHAR 0037
ENCODING 55
SWIDTH 543 0
DWIDTH 37 0
BBX 31 49 3 0
BITMAP
FFFFFFFE
FFFFFFFE
FFFFFFFE
FFFFFFFE
FFFFFFFE
FFFFFFFE
FFFFFFFE
FFFFFFFE
FFFFFFFE
00000FFC
00000FFC
00000FF8
00001FF8
00001FF8
00003FF0
00003FF0
00007FE0
00007FE0
00007FE0
0000FFC0
0000FFC0
0001FF80
0001FF80
0001FF80
0003FF00
0003FF00
0007FE00
0007FE00
0007FE00
000FFC00
000FFC00
001FF800
001FF800
001FF800
003FF000
003FF000
007FE000
007FE000
007FC000
00FFC000
00FFC000
01FF8000
01FF8000
03FF0000
03FF0000
03FF0000
07FE0000
07FE0000
0FFC0000
ENDCHAR
STARTCHAR 0038
ENCODING 56
SWIDTH 617 0
DWIDTH 42 0
BBX 34 51 4 -1
BITMAP
0007FC0000
007FFF8000
00FFFFE000
03FFFFF000
07FFFFF800
0FFFFFFC00
1FFFFFFE00
1FFFFFFE00
3FFFFFFF00
3FFC07FF00
3FF003FF80
3FF001FF80
7FE001FF80
7FE001FF80
7FE001FF80
7FE001FF80
3FF001FF80
3FF003FF80
3FF807FF00
3FFFFFFF00
1FFFFFFE00
0FFFFFFE00
0FFFFFFC00
07FFFFF800
0FFFFFFC00
1FFFFFFE00
1FFFFFFF00
3FFFFFFF00
3FFE1FFF80
7FF803FF80
7FE001FFC0
FFE000FFC0
FFC000FFC0
FFC000FFC0
FFC000FFC0
FFC000FFC0
FFC000FFC0
FFC000FFC0
FFC000FFC0
7FE001FFC0
7FF003FF80
7FF807FF80
3FFFFFFF80
3FFFFFFF00
1FFFFFFE00
0FFFFFFE00
07FFFFFC00
03FFFFF000
01FFFFE000
007FFF8000
000FFC0000
ENDCHAR
STARTCHAR 0039
ENCODING 57
SWIDTH 617 0
DWIDTH 42 0
BBX 35 51 3 -1
BITMAP
0007FC0000
003FFF8000
00FFFFE000
01FFFFF000
03FFFFF800
07FFFFFC00
0FFFFFFE00
1FFFFFFF00
3FFFFFFF00
3FFC0FFF80
7FF803FF80
7FF001FFC0
7FE000FFC0
7FC000FFC0
FFC0007FC0
FFC0007FC0
FFC0007FE0
FFC0007FE0
FFC0007FE0
7FC000FFE0
7FE000FFE0
7FF001FFE0
7FF803FFE0
3FFE0FFFE0
3FFFFFFFE0
1FFFFFFFE0
0FFFFFFFE0
0FFFFFFFE0
07FFFFFFE0
01FFFFFFE0
00FFFE7FE0
001FF87FE0
0000007FE0
0000007FE0
0000007FC0
0000007FC0
0000007FC0
000000FFC0
000000FFC0
000001FF80
006003FF80
00F80FFF80
01FFFFFF00
03FFFFFF00
03FFFFFE00
07FFFFFC00
0FFFFFF800
07FFFFF000
03FFFFC000
00FFFF0000
000FF80000
ENDCHAR
STARTCHAR 003A
ENCODING 58
SWIDTH 352 0
DWIDTH 24 0
BBX 10 29 7 4
BITMAP
7FC0
7FC0
7FC0
7FC0
7FC0
7FC0
7FC0
7FC0
7FC0
0000
0000
0000
0000
0000
0000
0000
0000
0000
0000
0000
FFC0
FFC0
FFC0
FFC0
FFC0
FFC0
FFC0
FFC0
FFC0
ENDCHAR
STARTCHAR 003B
ENCODING 59
SWIDTH 352 0
DWIDTH 24 0
BBX 10 46 7 -10
BITMAP
FFC0
FFC0
FFC0
FFC0
FFC0
FFC0
FFC0
FFC0
FFC0
0000
0000
0000
0000
0000
0000
0000
0000
0000
0000
0000
0000
0000
0000
0000
0000
0000
0000
0000
FFC0
FFC0
FFC0
FFC0
FFC0
FFC0
FFC0
FFC0
FFC0
07C0
07C0
07C0
0780
0F80
7F80
7F00
7E00
7C00
ENDCHAR
STARTCHAR 003C
ENCODING 60
SWIDTH 646 0
DWIDTH 44 0
BBX 22 32 10 6
BITMAP
000180
0003C0
0007E0
000FF0
001FF8
003FF8
007FF0
00FFE0
01FFC0
03FF80
07FF00
0FFE00
1FFC00
3FF800
7FF000
FFE000
FFF000
7FF800
3FFC00
1FFE00
0FFF00
07FF80
03FFC0
01FFE0
00FFF0
007FF8
003FFC
001FF8
000FF0
0007E0
0003C0
000100
ENDCHAR
STARTCHAR 003D
ENCODING 61
SWIDTH 749 0
DWIDTH 51 0
BBX 35 21 8 14
BITMAP
FFFFFFFFE0
FFFFFFFFE0
FFFFFFFFE0
FFFFFFFFE0
FFFFFFFFE0
FFFFFFFFE0
FFFFFFFFE0
0000000000
0000000000
0000000000
0000000000
0000000000
0000000000
0000000000
FFFFFFFFE0
FFFFFFFFE0
FFFFFFFFE0
FFFFFFFFE0
FFFFFFFFE0
FFFFFFFFE0
FFFFFFFFE0
ENDCHAR
STARTCHAR 003E
ENCODING 62
SWIDTH 646 0
DWIDTH 44 0
BBX 22 33 12 5
BITMAP
040000
0E0000
1F0000
3F8000
7FC000
FFE000
7FF000
3FF800
1FFC00
0FFE00
07FF00
03FF80
01FFC0
00FFE0
007FF0
003FF8
001FFC
003FF8
007FF0
00FFE0
01FFC0
03FF80
07FF00
0FFE00
1FFC00
3FF800
7FF000
FFE000
7FC000
3F8000
1F0000
0E0000
040000
ENDCHAR
STARTCHAR 003F
ENCODING 63
SWIDTH 558 0
DWIDTH 38 0
BBX 32 50 3 0
BITMAP
000FF800
007FFF00
01FFFFC0
03FFFFE0
07FFFFF0
0FFFFFF8
1FFFFFFC
3FFFFFFC
3FFFFFFE
7FF80FFE
7FE007FE
7FE003FF
7FC003FF
FFC003FF
000003FF
000003FF
000003FF
000003FE
000007FE
00000FFE
00000FFC
00001FFC
00003FF8
0000FFF0
0001FFF0
0003FFE0
0007FFC0
0007FF80
000FFF00
000FFE00
001FFC00
001FF800
001FF800
001FF000
001FF000
003FF000
003FF000
00000000
00000000
00000000
003FF000
003FF000
003FF000
003FF000
003FF000
003FF000
003FF000
003FF000
003FF000
003FF000
ENDCHAR
STARTCHAR 0040
ENCODING 64
SWIDTH 911 0
DWIDTH 62 0
BBX 52 51 5 -7
BITMAP
00000FFF000000
0000FFFFF00000
0003FFFFFC0000
000FFFFFFF0000
003FFFFFFFC000
007FFFFFFFE000
00FFFFFFFFF000
01FFFC03FFF800
03FFE0003FFC00
07FF00000FFE00
07FE000003FF00
0FFC000001FF00
0FF8000000FF80
1FF007FC007FC0
1FE01FFF7C3FC0
3FC07FFFFC3FC0
3FC0FFFFFC1FE0
3FC1FFFFFC1FE0
7F83FFFFFC1FE0
7F83FFFFFC0FE0
7F87FE07FC0FF0
7F07FC03FC0FF0
7F07F801FC0FF0
7F07F801FC0FF0
FF07F001FC0FF0
FF0FF001FC0FF0
FF0FF001FC0FF0
FF07F001FC0FF0
FF07F801FC0FF0
7F07F801FC0FF0
7F07FC03FE0FE0
7F83FF0FFF3FE0
7F83FFFFFFFFE0
7F81FFFFFFFFC0
7FC1FFFFFFFFC0
3FC0FFFFFFFF80
3FE07FFFBFFF00
1FE01FFE1FFE00
1FF003F807F800
0FF80000000000
0FFC0000000000
07FF0000000000
03FFC000000000
01FFF801C00000
00FFFFFFC00000
007FFFFFC00000
003FFFFFE00000
000FFFFFE00000
0003FFFFE00000
0000FFFFF00000
00000FFF800000
ENDCHAR
STARTCHAR 0041
ENCODING 65
SWIDTH 675 0
DWIDTH 46 0
BBX 43 49 2 0
BITMAP
0003FFF00000
0003FFF80000
0003FFF80000
0007FFF80000
0007FFFC0000
0007FFFC0000
000FFFFC0000
000FFFFC0000
000FFFFE0000
001FFFFE0000
001FFBFE0000
001FF3FF0000
001FF3FF0000
003FF1FF0000
003FE1FF8000
003FE1FF8000
007FE0FF8000
007FC0FF8000
007FC0FFC000
00FFC0FFC000
00FFC07FC000
00FF807FE000
01FF807FE000
01FF803FE000
01FF003FF000
01FF003FF000
03FF001FF000
03FE001FF800
03FE001FF800
07FE000FF800
07FFFFFFF800
07FFFFFFFC00
0FFFFFFFFC00
0FFFFFFFFC00
0FFFFFFFFE00
1FFFFFFFFE00
1FFFFFFFFE00
1FFFFFFFFF00
1FFFFFFFFF00
3FF00001FF00
3FE00001FF80
3FE00001FF80
7FE00000FF80
7FE00000FF80
7FC00000FFC0
FFC00000FFC0
FFC000007FC0
FF8000007FE0
FF8000007FE0
ENDCHAR
STARTCHAR 0042
ENCODING 66
SWIDTH 631 0
DWIDTH 43 0
BBX 36 49 5 0
BITMAP
FFFFFF0000
FFFFFFE000
FFFFFFF000
FFFFFFFC00
FFFFFFFE00
FFFFFFFE00
FFFFFFFF00
FFFFFFFF80
FFFFFFFF80
FF8003FF80
FF8000FFC0
FF8000FFC0
FF8000FFC0
FF80007FC0
FF80007FC0
FF8000FFC0
FF8000FFC0
FF8001FFC0
FF8003FF80
FFFFFFFF80
FFFFFFFF00
FFFFFFFE00
FFFFFFFC00
FFFFFFFC00
FFFFFFFF00
FFFFFFFF80
FFFFFFFFC0
FFFFFFFFE0
FF8000FFE0
FF80007FE0
FF80003FF0
FF80001FF0
FF80001FF0
FF80001FF0
FF80001FF0
FF80001FF0
FF80003FF0
FF80003FF0
FF80007FF0
FF8000FFF0
FFFFFFFFE0
FFFFFFFFE0
FFFFFFFFC0
FFFFFFFFC0
FFFFFFFF80
FFFFFFFF00
FFFFFFFE00
FFFFFFF800
FFFFFFC000
ENDCHAR
STARTCHAR 0043
ENCODING 67
SWIDTH 749 0
DWIDTH 51 0
BBX 46 51 2 -1
BITMAP
00003FF80000
0001FFFF8000
000FFFFFE000
001FFFFFF800
007FFFFFFC00
00FFFFFFFF00
01FFFFFFFF80
03FFFFFFFFC0
07FFFFFFFFC0
0FFFE007FFE0
0FFF8001FFF0
1FFE0000FFF0
1FFC00003FF8
3FF800003FF8
3FF000001FFC
3FF000000FFC
7FE000000FE0
7FE000000E00
7FE000000000
7FC000000000
FFC000000000
FFC000000000
FFC000000000
FFC000000000
FFC000000000
FFC000000000
FFC000000000
FFC000000000
FFC000000000
FFC000000000
FFC000000000
7FC000000000
7FE000000000
7FE000000E00
7FE000000FC0
3FF000000FFC
3FF000001FFC
3FF800003FF8
1FFC00003FF8
1FFE0000FFF0
0FFF0001FFF0
0FFFE007FFE0
07FFFFFFFFC0
03FFFFFFFFC0
01FFFFFFFF80
00FFFFFFFF00
007FFFFFFC00
001FFFFFF800
000FFFFFE000
0001FFFF8000
00003FF80000
ENDCHAR
STARTCHAR 0044
ENCODING 68
SWIDTH 705 0
DWIDTH 48 0
BBX 40 49 5 0
BITMAP
FFFFFE0000
FFFFFFC000
FFFFFFF800
FFFFFFFC00
FFFFFFFF00
FFFFFFFF80
FFFFFFFFC0
FFFFFFFFE0
FFFFFFFFE0
FF8003FFF0
FF8000FFF8
FF80003FF8
FF80003FFC
FF80001FFC
FF80000FFC
FF80000FFE
FF800007FE
FF800007FE
FF800007FE
FF800003FF
FF800003FF
FF800003FF
FF800003FF
FF800003FF
FF800003FF
FF800003FF
FF800003FF
FF800003FF
FF800003FF
FF800003FF
FF800007FE
FF800007FE
FF800007FE
FF80000FFE
FF80000FFC
FF80001FFC
FF80003FFC
FF80003FF8
FF8000FFF8
FF8003FFF0
FFFFFFFFE0
FFFFFFFFE0
FFFFFFFFC0
FFFFFFFF80
FFFFFFFF00
FFFFFFFC00
FFFFFFF800
FFFFFFE000
FFFFFE0000
ENDCHAR
STARTCHAR 0045
ENCODING 69
SWIDTH 587 0
DWIDTH 40 0
BBX 32 49 5 0
BITMAP
FFFFFFFF
FFFFFFFF
FFFFFFFF
FFFFFFFF
FFFFFFFF
FFFFFFFF
FFFFFFFF
FFFFFFFF
FFFFFFFF
FF800000
FF800000
FF800000
FF800000
FF800000
FF800000
FF800000
FF800000
FF800000
FF800000
FFFFFFF0
FFFFFFF0
FFFFFFF0
FFFFFFF0
FFFFFFF0
FFFFFFF0
FFFFFFF0
FFFFFFF0
FFFFFFF0
FF800000
FF800000
FF800000
FF800000
FF800000
FF800000
FF800000
FF800000
FF800000
FF800000
FF800000
FF800000
FFFFFFFF
FFFFFFFF
FFFFFFFF
FFFFFFFF
FFFFFFFF
FFFFFFFF
FFFFFFFF
FFFFFFFF
FFFFFFFF
ENDCHAR
STARTCHAR 0046
ENCODING 70
SWIDTH 528 0
DWIDTH 36 0
BBX 30 49 5 0
BITMAP
FFFFFFFC
FFFFFFFC
FFFFFFFC
FFFFFFFC
FFFFFFFC
FFFFFFFC
FFFFFFFC
FFFFFFFC
FFFFFFFC
FF800000
FF800000
FF800000
FF800000
FF800000
FF800000
FF800000
FF800000
FF800000
FF800000
FF800000
FFFFFFC0
FFFFFFC0
FFFFFFC0
FFFFFFC0
FFFFFFC0
FFFFFFC0
FFFFFFC0
FFFFFFC0
FFFFFFC0
FF800000
FF800000
FF800000
FF800000
FF800000
FF800000
FF800000
FF800000
FF800000
FF800000
FF800000
FF800000
FF800000
FF800000
FF800000
FF800000
FF800000
FF800000
FF800000
FF800000
ENDCHAR
STARTCHAR 0047
ENCODING 71
SWIDTH 734 0
DWIDTH 50 0
BBX 46 51 2 -1
BITMAP
00003FF80000
0001FFFF8000
000FFFFFE000
001FFFFFF800
007FFFFFFC00
00FFFFFFFE00
01FFFFFFFF00
03FFFFFFFF80
07FFFFFFFFC0
0FFFE00FFFC0
0FFF0003FFE0
1FFE0000FFE0
1FFC00007FF0
3FF800003FF0
3FF000003FF8
3FF000001FF8
7FE000001FF8
7FE000000F00
7FE000000000
7FC000000000
FFC000000000
FFC000000000
FFC000000000
FFC000000000
FFC00007FFFC
FFC00007FFFC
FFC00007FFFC
FFC00007FFFC
FFC00007FFFC
FFC00007FFFC
FFC00007FFFC
7FC000000FFC
7FE000000FFC
7FE000000FFC
7FE000001FF8
3FF000001FF8
3FF800003FF8
3FF800003FF0
1FFC00007FF0
1FFE0000FFE0
0FFF8001FFE0
0FFFE007FFC0
07FFFFFFFFC0
03FFFFFFFF80
01FFFFFFFF00
00FFFFFFFE00
007FFFFFFC00
001FFFFFF000
000FFFFFC000
0001FFFF0000
00003FF80000
ENDCHAR
STARTCHAR 0048
ENCODING 72
SWIDTH 734 0
DWIDTH 50 0
BBX 40 49 5 0
BITMAP
FF800001FF
FF800001FF
FF800001FF
FF800001FF
FF800001FF
FF800001FF
FF800001FF
FF800001FF
FF800001FF
FF800001FF
FF800001FF
FF800001FF
FF800001FF
FF800001FF
FF800001FF
FF800001FF
FF800001FF
FF800001FF
FF800001FF
FF800001FF
FFFFFFFFFF
FFFFFFFFFF
FFFFFFFFFF
FFFFFFFFFF
FFFFFFFFFF
FFFFFFFFFF
FFFFFFFFFF
FFFFFFFFFF
FFFFFFFFFF
FF800001FF
FF800001FF
FF800001FF
FF800001FF
FF800001FF
FF800001FF
FF800001FF
FF800001FF
FF800001FF
FF800001FF
FF800001FF
FF800001FF
FF800001FF
FF800001FF
FF800001FF
FF800001FF
FF800001FF
FF800001FF
FF800001FF
FF800001FF
ENDCHAR
STARTCHAR 0049
ENCODING 73
SWIDTH 293 0
DWIDTH 20 0
BBX 10 49 5 0
BITMAP
FFC0
FFC0
FFC0
FFC0
FFC0
FFC0
FFC0
FFC0
FFC0
FFC0
FFC0
FFC0
FFC0
FFC0
FFC0
FFC0
FFC0
FFC0
FFC0
FFC0
FFC0
FFC0
FFC0
FFC0
FFC0
FFC0
FFC0
FFC0
FFC0
FFC0
FFC0
FFC0
FFC0
FFC0
FFC0
FFC0
FFC0
FFC0
FFC0
FFC0
FFC0
FFC0
FFC0
FFC0
FFC0
FFC0
FFC0
FFC0
FFC0
ENDCHAR
STARTCHAR 004A
ENCODING 74
SWIDTH 514 0
DWIDTH 35 0
BBX 29 50 0 -1
BITMAP
00000FF8
00000FF8
00000FF8
00000FF8
00000FF8
00000FF8
00000FF8
00000FF8
00000FF8
00000FF8
00000FF8
00000FF8
00000FF8
00000FF8
00000FF8
00000FF8
00000FF8
00000FF8
00000FF8
00000FF8
00000FF8
00000FF8
00000FF8
00000FF8
00000FF8
00000FF8
00000FF8
00000FF8
00000FF8
00000FF8
00000FF8
00000FF8
00000FF8
00000FF8
00000FF8
00000FF8
00000FF8
03800FF8
3FC01FF8
FFE01FF8
7FF03FF8
7FFFFFF8
7FFFFFF0
3FFFFFF0
1FFFFFE0
0FFFFFC0
07FFFF80
03FFFF00
00FFFC00
001FF000
ENDCHAR
STARTCHAR 004B
ENCODING 75
SWIDTH 661 0
DWIDTH 45 0
BBX 40 49 5 0
BITMAP
FF80001FFE
FF80003FFC
FF80003FF8
FF80007FF0
FF8000FFE0
FF8001FFC0
FF8003FF80
FF8007FF80
FF8007FF00
FF800FFE00
FF801FFC00
FF803FF800
FF807FF000
FF807FF000
FF80FFE000
FF81FFC000
FF83FF8000
FF87FF0000
FF8FFE0000
FF8FFC0000
FF9FFC0000
FFBFF80000
FFFFF00000
FFFFE00000
FFFFE00000
FFFFF00000
FFFFF80000
FFBFF80000
FF9FFC0000
FF9FFE0000
FF8FFF0000
FF87FF8000
FF83FFC000
FF81FFE000
FF80FFF000
FF807FF000
FF803FF800
FF803FFC00
FF801FFE00
FF800FFF00
FF8007FF80
FF8003FFC0
FF8001FFE0
FF8000FFE0
FF80007FF0
FF80007FF8
FF80003FFC
FF80001FFE
FF80000FFF
ENDCHAR
STARTCHAR 004C
ENCODING 76
SWIDTH 543 0
DWIDTH 37 0
BBX 31 49 5 0
BITMAP
FFC00000
FFC00000
FFC00000
FFC00000
FFC00000
FFC00000
FFC00000
FFC00000
FFC00000
FFC00000
FFC00000
FFC00000
FFC00000
FFC00000
FFC00000
FFC00000
FFC00000
FFC00000
FFC00000
FFC00000
FFC00000
FFC00000
FFC00000
FFC00000
FFC00000
FFC00000
FFC00000
FFC00000
FFC00000
FFC00000
FFC00000
FFC00000
FFC00000
FFC00000
FFC00000
FFC00000
FFC00000
FFC00000
FFC00000
FFC00000
FFFFFFFE
FFFFFFFE
FFFFFFFE
FFFFFFFE
FFFFFFFE
FFFFFFFE
FFFFFFFE
FFFFFFFE
FFFFFFFE
ENDCHAR
STARTCHAR 004D
ENCODING 77
SWIDTH 866 0
DWIDTH 59 0
BBX 49 49 5 0
BITMAP
FF00000000FF80
FF80000000FF80
FF80000001FF80
FFC0000001FF80
FFC0000003FF80
FFE0000003FF80
FFE0000007FF80
FFF0000007FF80
FFF000000FFF80
FFF800000FFF80
FFF800001FFF80
FFFC00001FFF80
FFFC00003FFF80
FFFE00003FFF80
FFFE00007FFF80
FFFF00007FFF80
FFFF0000FFFF80
FFFF8000FFFF80
FFFF8001FFFF80
FFFFC001FFFF80
FF7FC003FFFF80
FF7FE003FEFF80
FF3FE007FEFF80
FF3FF007FCFF80
FF1FF00FFCFF80
FF1FF80FF8FF80
FF0FF81FF8FF80
FF0FFC1FF0FF80
FF07FC3FF0FF80
FF07FE3FE0FF80
FF03FE7FE0FF80
FF03FF7FC0FF80
FF01FFFFC0FF80
FF01FFFF80FF80
FF00FFFF80FF80
FF00FFFF00FF80
FF007FFF00FF80
FF007FFE00FF80
FF003FFE00FF80
FF003FFE00FF80
FF003FFC00FF80
FF001FFC00FF80
FF001FF800FF80
FF000FF800FF80
FF000FF000FF80
FF0007F000FF80
FF0007E000FF80
FF0003E000FF80
FF0003C000FF80
ENDCHAR
STARTCHAR 004E
ENCODING 78
SWIDTH 734 0
DWIDTH 50 0
BBX 40 49 5 0
BITMAP
FF800003FF
FFC00003FF
FFE00003FF
FFE00003FF
FFF00003FF
FFF80003FF
FFF80003FF
FFFC0003FF
FFFE0003FF
FFFE0003FF
FFFF0003FF
FFFF8003FF
FFFF8003FF
FFFFC003FF
FFFFE003FF
FFFFE003FF
FFFFF003FF
FFBFF803FF
FF9FF803FF
FF9FFC03FF
FF8FFE03FF
FF8FFE03FF
FF87FF03FF
FF83FF03FF
FF83FF83FF
FF81FFC3FF
FF80FFC3FF
FF80FFE3FF
FF807FF3FF
FF803FF3FF
FF803FFBFF
FF801FFFFF
FF800FFFFF
FF800FFFFF
FF8007FFFF
FF8003FFFF
FF8003FFFF
FF8001FFFF
FF8000FFFF
FF8000FFFF
FF80007FFF
FF80003FFF
FF80003FFF
FF80001FFF
FF80000FFF
FF80000FFF
FF800007FF
FF800007FF
FF800003FF
ENDCHAR
STARTCHAR 004F
ENCODING 79
SWIDTH 764 0
DWIDTH 52 0
BBX 48 51 2 -1
BITMAP
00003FF80000
0001FFFF8000
000FFFFFE000
001FFFFFF800
007FFFFFFC00
00FFFFFFFF00
01FFFFFFFF80
03FFFFFFFFC0
07FFFFFFFFC0
0FFFE007FFE0
0FFF0001FFF0
1FFE0000FFF0
1FFC00007FF8
3FF800003FF8
3FF000001FFC
3FF000000FFC
7FE000000FFC
7FE000000FFE
7FE0000007FE
7FC0000007FE
FFC0000007FE
FFC0000007FE
FFC0000003FE
FFC0000003FE
FFC0000003FF
FFC0000003FF
FFC0000003FF
FFC0000003FE
FFC0000003FE
FFC0000007FE
FFC0000007FE
7FC0000007FE
7FE0000007FE
7FE0000007FE
7FE000000FFC
3FF000000FFC
3FF000001FFC
3FF800003FF8
1FFC00003FF8
1FFE00007FF0
0FFF8001FFF0
0FFFE007FFE0
07FFFFFFFFC0
03FFFFFFFFC0
01FFFFFFFF80
00FFFFFFFF00
007FFFFFFC00
001FFFFFF800
000FFFFFE000
0001FFFF8000
00003FF80000
ENDCHAR
STARTCHAR 0050
ENCODING 80
SWIDTH 646 0
DWIDTH 44 0
BBX 37 49 5 0
BITMAP
FFFFFFC000
FFFFFFF800
FFFFFFFE00
FFFFFFFF00
FFFFFFFF80
FFFFFFFFC0
FFFFFFFFE0
FFFFFFFFE0
FFFFFFFFF0
FF8000FFF0
FF80003FF0
FF80001FF8
FF80001FF8
FF80001FF8
FF80000FF8
FF80000FF8
FF80000FF8
FF80000FF8
FF80000FF8
FF80001FF8
FF80001FF8
FF80003FF8
FF80007FF0
FF8000FFF0
FFFFFFFFF0
FFFFFFFFE0
FFFFFFFFC0
FFFFFFFFC0
FFFFFFFF80
FFFFFFFF00
FFFFFFFC00
FFFFFFF000
FFFFFE0000
FF80000000
FF80000000
FF80000000
FF80000000
FF80000000
FF80000000
FF80000000
FF80000000
FF80000000
FF80000000
FF80000000
FF80000000
FF80000000
FF80000000
FF80000000
FF80000000
ENDCHAR
STARTCHAR 0051
ENCODING 81
SWIDTH 764 0
DWIDTH 52 0
BBX 48 51 2 -1
BITMAP
00003FF80000
0001FFFF8000
000FFFFFE000
001FFFFFF800
007FFFFFFC00
00FFFFFFFF00
01FFFFFFFF80
03FFFFFFFFC0
07FFFFFFFFC0
0FFFE007FFE0
0FFF0001FFF0
1FFE0000FFF0
1FFC00007FF8
3FF800003FF8
3FF000001FFC
3FF000000FFC
7FE000000FFC
7FE000000FFE
7FE0000007FE
7FC0000007FE
FFC0000007FE
FFC0000007FE
FFC0000003FE
FFC0000003FE
FFC0000003FF
FFC0000003FF
FFC0000003FF
FFC0000003FE
FFC0000003FE
FFC0000007FE
FFC0000007FE
7FC0000087FE
7FE00001C7FE
7FE00003E7FE
7FE00007FFFC
3FF0000FFFFC
3FF0001FFFFC
3FF8001FFFF8
1FFC000FFFF8
1FFE0003FFF0
0FFF8001FFF0
0FFFE007FFE0
07FFFFFFFFF0
03FFFFFFFFF8
01FFFFFFFFFC
00FFFFFFFFFE
007FFFFFFFFC
001FFFFFFBF8
000FFFFFE1F0
0001FFFF80E0
00003FF80040
ENDCHAR
STARTCHAR 0052
ENCODING 82
SWIDTH 675 0
DWIDTH 46 0
BBX 38 49 5 0
BITMAP
FFFFFFC000
FFFFFFF800
FFFFFFFE00
FFFFFFFF00
FFFFFFFF80
FFFFFFFFC0
FFFFFFFFE0
FFFFFFFFE0
FFFFFFFFF0
FF8000FFF0
FF80003FF0
FF80001FF8
FF80001FF8
FF80001FF8
FF80000FF8
FF80000FF8
FF80000FF8
FF80000FF8
FF80000FF8
FF80001FF8
FF80001FF8
FF80003FF8
FF80007FF0
FF8000FFF0
FFFFFFFFF0
FFFFFFFFE0
FFFFFFFFC0
FFFFFFFFC0
FFFFFFFF80
FFFFFFFF00
FFFFFFFC00
FFFFFFF800
FFFFFFFC00
FF800FFC00
FF800FFE00
FF8007FE00
FF8007FF00
FF8003FF00
FF8003FF80
FF8001FF80
FF8001FFC0
FF8000FFC0
FF8000FFE0
FF80007FE0
FF80007FF0
FF80003FF0
FF80003FF8
FF80001FF8
FF80001FFC
ENDCHAR
STARTCHAR 0053
ENCODING 83
SWIDTH 675 0
DWIDTH 46 0
BBX 40 51 3 -1
BITMAP
0003FF8000
001FFFF000
007FFFFC00
01FFFFFF00
03FFFFFF80
07FFFFFFE0
0FFFFFFFF0
1FFFFFFFF0
1FFFFFFFF8
3FFE00FFFC
3FF8003FFC
3FF0001FFE
3FF0000FFE
3FE0000FFE
3FE00007FE
3FF0000780
3FF0000000
3FF8000000
3FFE000000
3FFFC00000
1FFFFC0000
1FFFFFC000
0FFFFFF800
07FFFFFF00
03FFFFFFC0
00FFFFFFE0
003FFFFFF0
0007FFFFF8
0000FFFFFC
00000FFFFE
000001FFFE
0000003FFE
0000000FFF
00000007FF
1FC00003FF
FFC00003FF
FFE00003FF
FFE00003FF
7FF00003FF
7FF80007FE
7FFC000FFE
3FFF003FFE
1FFFFFFFFC
1FFFFFFFFC
0FFFFFFFF8
07FFFFFFF0
03FFFFFFE0
01FFFFFF80
007FFFFF00
000FFFF800
0001FFC000
ENDCHAR
STARTCHAR 0054
ENCODING 84
SWIDTH 617 0
DWIDTH 42 0
BBX 40 49 1 0
BITMAP
FFFFFFFFFF
FFFFFFFFFF
FFFFFFFFFF
FFFFFFFFFF
FFFFFFFFFF
FFFFFFFFFF
FFFFFFFFFF
FFFFFFFFFF
FFFFFFFFFF
0001FF0000
0001FF0000
0001FF0000
0001FF0000
0001FF0000
0001FF0000
0001FF0000
0001FF0000
0001FF0000
0001FF0000
0001FF0000
0001FF0000
0001FF0000
0001FF0000
0001FF0000
0001FF0000
0001FF0000
0001FF0000
0001FF0000
0001FF0000
0001FF0000
0001FF0000
0001FF0000
0001FF0000
0001FF0000
0001FF0000
0001FF0000
0001FF0000
0001FF0000
0001FF0000
0001FF0000
0001FF0000
0001FF0000
0001FF0000
0001FF0000
0001FF0000
0001FF0000
0001FF0000
0001FF0000
0001FF0000
ENDCHAR
STARTCHAR 0055
ENCODING 85
SWIDTH 720 0
DWIDTH 49 0
BBX 40 50 5 -1
BITMAP
FF800003FF
FF800003FF
FF800003FF
FF800003FF
FF800003FF
FF800003FF
FF800003FF
FF800003FF
FF800003FF
FF800003FF
FF800003FF
FF800003FF
FF800003FF
FF800003FF
FF800003FF
FF800003FF
FF800003FF
FF800003FF
FF800003FF
FF800003FF
FF800003FF
FF800003FF
FF800003FF
FF800003FF
FF800003FF
FF800003FF
FF800003FF
FF800003FF
FF800003FF
FF800003FF
FF800003FF
FF800003FF
FF800003FF
FF800003FE
FFC00003FE
FFC00007FE
FFE00007FE
7FE0000FFE
7FF0001FFC
3FFC003FFC
3FFF00FFF8
1FFFFFFFF8
1FFFFFFFF0
0FFFFFFFE0
07FFFFFFC0
03FFFFFF80
01FFFFFF00
007FFFFC00
001FFFF000
0003FF8000
ENDCHAR
STARTCHAR 0056
ENCODING 86
SWIDTH 646 0
DWIDTH 44 0
BBX 44 49 0 0
BITMAP
FFC000003FF0
7FC000003FF0
7FE000003FE0
7FE000007FE0
3FE000007FE0
3FF000007FC0
3FF000007FC0
1FF00000FFC0
1FF00000FFC0
1FF80000FF80
0FF80001FF80
0FF80001FF80
0FFC0001FF00
0FFC0003FF00
07FC0003FF00
07FE0003FE00
07FE0007FE00
03FE0007FE00
03FE0007FC00
03FF0007FC00
01FF000FFC00
01FF000FFC00
01FF800FF800
01FF801FF800
00FF801FF800
00FFC01FF000
00FFC03FF000
007FC03FF000
007FE03FE000
007FE07FE000
003FE07FE000
003FE07FC000
003FF07FC000
001FF0FFC000
001FF0FFC000
001FF8FF8000
001FF9FF8000
000FF9FF8000
000FFDFF0000
000FFFFF0000
0007FFFF0000
0007FFFE0000
0007FFFE0000
0003FFFE0000
0003FFFE0000
0003FFFC0000
0001FFFC0000
0001FFFC0000
0001FFF80000
ENDCHAR
STARTCHAR 0057
ENCODING 87
SWIDTH 984 0
DWIDTH 67 0
BBX 65 49 1 0
BITMAP
FFC0000FFC0000FF80
FFC0001FFC0001FF80
FFC0001FFC0001FF80
7FC0001FFC0001FF80
7FE0001FFE0001FF00
7FE0003FFE0003FF00
3FE0003FFE0003FF00
3FE0003FFF0003FE00
3FF0007FFF0003FE00
3FF0007FFF0007FE00
1FF0007FFF0007FE00
1FF8007FFF8007FC00
1FF800FFFF800FFC00
0FF800FFFF800FFC00
0FF800FFFF800FF800
0FFC00FFFFC00FF800
0FFC01FF7FC01FF800
07FC01FF7FC01FF800
07FC01FF7FE01FF000
07FE03FF3FE01FF000
03FE03FE3FE03FF000
03FE03FE3FE03FE000
03FF03FE1FF03FE000
01FF07FC1FF07FE000
01FF07FC1FF07FC000
01FF07FC1FF07FC000
01FF87FC0FF87FC000
00FF8FF80FF8FFC000
00FF8FF80FF8FF8000
00FF8FF807FCFF8000
007FDFF007FCFF8000
007FDFF007FDFF0000
007FDFF007FDFF0000
007FFFF003FFFF0000
003FFFE003FFFF0000
003FFFE003FFFE0000
003FFFE001FFFE0000
001FFFC001FFFE0000
001FFFC001FFFC0000
001FFFC001FFFC0000
000FFFC000FFFC0000
000FFF8000FFF80000
000FFF8000FFF80000
000FFF80007FF80000
0007FF00007FF80000
0007FF00007FF00000
0007FF00007FF00000
0003FF00003FF00000
0003FE00003FE00000
ENDCHAR
STARTCHAR 0058
ENCODING 88
SWIDTH 675 0
DWIDTH 46 0
BBX 44 49 1 0
BITMAP
FFF00000FFE0
7FF00001FFE0
3FF80001FFC0
3FFC0003FF80
1FFC0007FF80
0FFE0007FF00
0FFF000FFE00
07FF001FFE00
03FF801FFC00
03FFC03FF800
01FFC03FF800
00FFE07FF000
00FFE0FFE000
007FF0FFE000
003FF9FFC000
003FFBFF8000
001FFFFF8000
000FFFFF0000
000FFFFE0000
0007FFFE0000
0003FFFC0000
0003FFF80000
0001FFF80000
0000FFF00000
0000FFF00000
0001FFF00000
0001FFF80000
0003FFFC0000
0007FFFC0000
0007FFFE0000
000FFFFF0000
001FFFFF0000
001FFFFF8000
003FF9FFC000
007FF1FFC000
007FF0FFE000
00FFE07FF000
01FFC07FF000
01FFC03FF800
03FF801FFC00
07FF801FFC00
07FF000FFE00
0FFE0007FF00
1FFE0007FF00
1FFC0003FF80
3FF80003FFC0
7FF80001FFC0
7FF00000FFE0
FFE00000FFF0
ENDCHAR
STARTCHAR 0059
ENCODING 89
SWIDTH 631 0
DWIDTH 43 0
BBX 43 49 0 0
BITMAP
FFE00000FFE0
7FF00001FFC0
7FF00001FF80
3FF80003FF80
1FF80007FF00
1FFC0007FF00
0FFE000FFE00
0FFE000FFE00
07FF001FFC00
07FF001FF800
03FF803FF800
01FF807FF000
01FFC07FF000
00FFE0FFE000
00FFE0FFE000
007FF1FFC000
007FF1FF8000
003FFBFF8000
001FFFFF0000
001FFFFF0000
000FFFFE0000
000FFFFC0000
0007FFFC0000
0003FFF80000
0003FFF80000
0001FFF00000
0001FFF00000
0000FFE00000
0000FFC00000
00007FC00000
00007FC00000
00007FC00000
00007FC00000
00007FC00000
00007FC00000
00007FC00000
00007FC00000
00007FC00000
00007FC00000
00007FC00000
00007FC00000
00007FC00000
00007FC00000
00007FC00000
00007FC00000
00007FC00000
00007FC00000
00007FC00000
00007FC00000
ENDCHAR
STARTCHAR 005A
ENCODING 90
SWIDTH 675 0
DWIDTH 46 0
BBX 40 49 3 0
BITMAP
3FFFFFFFFF
3FFFFFFFFF
3FFFFFFFFE
3FFFFFFFFC
3FFFFFFFFC
3FFFFFFFF8
3FFFFFFFF8
3FFFFFFFF0
3FFFFFFFF0
000001FFE0
000001FFC0
000003FFC0
000007FF80
000007FF80
00000FFF00
00000FFE00
00001FFE00
00003FFC00
00003FFC00
00007FF800
00007FF000
0000FFF000
0001FFE000
0001FFE000
0003FFC000
0003FF8000
0007FF8000
000FFF0000
000FFF0000
001FFE0000
001FFE0000
003FFC0000
003FF80000
007FF80000
00FFF00000
00FFF00000
01FFE00000
01FFC00000
03FFC00000
07FF800000
07FFFFFFFE
0FFFFFFFFE
0FFFFFFFFE
1FFFFFFFFE
3FFFFFFFFE
3FFFFFFFFE
7FFFFFFFFE
7FFFFFFFFE
FFFFFFFFFE
ENDCHAR
STARTCHAR 005B
ENCODING 91
SWIDTH 426 0
DWIDTH 29 0
BBX 15 75 10 -14
BITMAP
FFFE
FFFE
FFFE
FFFE
FFFE
FFFE
FFFE
FFFE
FF00
FF00
FF00
FF00
FF00
FF00
FF00
FF00
FF00
FF00
FF00
FF00
FF00
FF00
FF00
FF00
FF00
FF00
FF00
FF00
FF00
FF00
FF00
FF00
FF00
FF00
FF00
FF00
FF00
FF00
FF00
FF00
FF00
FF00
FF00
FF00
FF00
FF00
FF00
FF00
FF00
FF00
FF00
FF00
FF00
FF00
FF00
FF00
FF00
FF00
FF00
FF00
FF00
FF00
FF00
FF00
FF00
FF00
FF00
FFFE
FFFE
FFFE
FFFE
FFFE
FFFE
FFFE
FFFE
ENDCHAR
STARTCHAR 005C
ENCODING 92
SWIDTH 440 0
DWIDTH 30 0
BBX 22 49 4 0
BITMAP
FF8000
FFC000
7FC000
7FC000
7FE000
3FE000
3FE000
3FE000
3FF000
1FF000
1FF000
1FF000
1FF800
0FF800
0FF800
0FF800
0FFC00
07FC00
07FC00
07FE00
03FE00
03FE00
03FE00
03FF00
01FF00
01FF00
01FF00
01FF80
00FF80
00FF80
00FF80
00FFC0
007FC0
007FC0
007FE0
003FE0
003FE0
003FE0
003FF0
001FF0
001FF0
001FF0
001FF8
000FF8
000FF8
000FF8
000FFC
0007FC
0007FC
ENDCHAR
STARTCHAR 005D
ENCODING 93
SWIDTH 426 0
DWIDTH 29 0
BBX 16 75 4 -14
BITMAP
FFFF
FFFF
FFFF
FFFF
FFFF
FFFF
FFFF
FFFF
01FF
01FF
01FF
01FF
01FF
01FF
01FF
01FF
01FF
01FF
01FF
01FF
01FF
01FF
01FF
01FF
01FF
01FF
01FF
01FF
01FF
01FF
01FF
01FF
01FF
01FF
01FF
01FF
01FF
01FF
01FF
01FF
01FF
01FF
01FF
01FF
01FF
01FF
01FF
01FF
01FF
01FF
01FF
01FF
01FF
01FF
01FF
01FF
01FF
01FF
01FF
01FF
01FF
01FF
01FF
01FF
01FF
01FF
01FF
FFFF
FFFF
FFFF
FFFF
FFFF
FFFF
FFFF
FFFF
ENDCHAR
STARTCHAR 005E
ENCODING 94
SWIDTH 690 0
DWIDTH 47 0
BBX 33 22 7 28
BITMAP
0000800000
0001C00000
0003E00000
0007F00000
000FF80000
001FFC0000
003FFE0000
007FFF0000
00FFFF8000
01FFFFC000
03FFFFE000
07FF7FF000
0FFE3FF800
1FFC1FFC00
3FF80FFE00
7FF007FF00
FFE003FF80
7FC001FF00
3F8000FE00
1F80007C00
0F00003800
0600001000
ENDCHAR
STARTCHAR 005F
ENCODING 95
SWIDTH 661 0
DWIDTH 45 0
BBX 45 7 0 -9
BITMAP
FFFFFFFFFFF8
FFFFFFFFFFF8
FFFFFFFFFFF8
FFFFFFFFFFF8
FFFFFFFFFFF8
FFFFFFFFFFF8
FFFFFFFFFFF8
ENDCHAR
STARTCHAR 0060
ENCODING 96
SWIDTH 558 0
DWIDTH 38 0
BBX 12 13 11 54
BITMAP
FE00
7F00
7F00
7F00
3F80
3F80
1FC0
1FC0
0FC0
0FE0
0FE0
07F0
07F0
ENDCHAR
STARTCHAR 0061
ENCODING 97
SWIDTH 587 0
DWIDTH 40 0
BBX 33 39 3 -1
BITMAP
000FFC0000
007FFF8000
01FFFFE000
07FFFFF800
0FFFFFFC00
1FFFFFFC00
1FFFFFFE00
3FFFFFFE00
3FFF7FFF00
7FF007FF00
3FE003FF00
07C001FF00
00C001FF80
000001FF80
00007FFF80
000FFFFF80
00FFFFFF80
03FFFFFF80
0FFFFFFF80
1FFFFFFF80
3FFFFFFF80
7FFFF9FF80
7FFF01FF80
FFF001FF80
FFE001FF80
FF8001FF80
FF8001FF80
FF8003FF80
FF8007FF80
FF800FFF80
FFC01FFF80
FFF0FFFF80
7FFFFFFF80
7FFFFFFF80
3FFFFFFF80
1FFFFEFF80
0FFFF8FF80
07FFF0FF80
00FF800000
ENDCHAR
STARTCHAR 0062
ENCODING 98
SWIDTH 617 0
DWIDTH 42 0
BBX 35 50 5 -1
BITMAP
FF80000000
FF80000000
FF80000000
FF80000000
FF80000000
FF80000000
FF80000000
FF80000000
FF80000000
FF80000000
FF80000000
FF87FC0000
FFBFFF8000
FFFFFFC000
FFFFFFF000
FFFFFFF800
FFFFFFFC00
FFFFFFFE00
FFFFFFFE00
FFFC3FFF00
FFF007FF80
FFC003FF80
FFC001FF80
FF8001FFC0
FF8000FFC0
FF0000FFC0
FF0000FFC0
FF00007FE0
FF00007FE0
FF00007FE0
FF00007FE0
FF00007FE0
FF00007FE0
FF00007FE0
FF0000FFC0
FF0000FFC0
FF8000FFC0
FF8001FFC0
FFC001FF80
FFC003FF80
FFF007FF80
FFFC3FFF00
FFFFFFFE00
FFFFFFFE00
FFFFFFFC00
FFFFFFF800
FFFFFFF000
FF7FFFE000
FF3FFF8000
0007FC0000
ENDCHAR
STARTCHAR 0063
ENCODING 99
SWIDTH 587 0
DWIDTH 40 0
BBX 34 39 3 -1
BITMAP
0003FE0000
003FFFC000
00FFFFF000
01FFFFF800
03FFFFFC00
07FFFFFE00
0FFFFFFF00
1FFFFFFF80
3FFFFFFF80
3FFC07FFC0
7FF801FFC0
7FF000FFC0
7FE000FFC0
FFE0007C00
FFC0004000
FFC0000000
FFC0000000
FFC0000000
FFC0000000
FFC0000000
FFC0000000
FFC0000000
FFC0000000
FFC0000000
FFC0000000
FFE0007800
7FE000FF80
7FF000FFC0
7FF801FFC0
3FFC03FFC0
3FFFFFFF80
1FFFFFFF80
0FFFFFFF00
07FFFFFE00
03FFFFFC00
01FFFFF800
00FFFFF000
003FFFC000
0007FE0000
ENDCHAR
STARTCHAR 0064
ENCODING 100
SWIDTH 631 0
DWIDTH 43 0
BBX 35 50 3 -1
BITMAP
0000007FE0
0000007FE0
0000007FE0
0000007FE0
0000007FE0
0000007FE0
0000007FE0
0000007FE0
0000007FE0
0000007FE0
0000007FE0
0007F87FE0
003FFF7FE0
00FFFFFFE0
01FFFFFFE0
07FFFFFFE0
0FFFFFFFE0
0FFFFFFFE0
1FFFFFFFE0
3FFF07FFE0
3FFC01FFE0
7FF800FFE0
7FF0007FE0
7FE0007FE0
FFE0003FE0
FFC0003FE0
FFC0003FE0
FFC0003FE0
FFC0003FE0
FFC0001FE0
FFC0001FE0
FFC0001FE0
FFC0001FE0
FFC0003FE0
FFC0003FE0
FFC0003FE0
FFE0003FE0
7FE0007FE0
7FF0007FE0
7FF000FFE0
3FFC01FFE0
3FFF0FFFE0
1FFFFFFFE0
0FFFFFFFE0
0FFFFFFFE0
07FFFFFFE0
01FFFFFFE0
00FFFFDFE0
003FFF1FE0
000FF80000
ENDCHAR
STARTCHAR 0065
ENCODING 101
SWIDTH 602 0
DWIDTH 41 0
BBX 36 39 3 -1
BITMAP
0003FE0000
001FFFC000
007FFFF000
01FFFFF800
03FFFFFC00
07FFFFFE00
0FFFFFFF00
1FFFFFFF80
1FFE03FF80
3FF800FFC0
3FF000FFC0
7FE0007FC0
7FE0003FE0
FFC0003FE0
FFC0003FE0
FFFFFFFFE0
FFFFFFFFE0
FFFFFFFFF0
FFFFFFFFF0
FFFFFFFFF0
FFFFFFFFF0
FFFFFFFFF0
FFC0000000
FFC0000000
FFC0000000
FFE0000000
7FE0007800
7FF0007F00
7FF800FFE0
3FFC03FFE0
1FFFFFFFC0
1FFFFFFF80
0FFFFFFF80
07FFFFFF00
03FFFFFE00
01FFFFFC00
007FFFF000
001FFFC000
0003FE0000
ENDCHAR
STARTCHAR 0066
ENCODING 102
SWIDTH 382 0
DWIDTH 26 0
BBX 24 50 2 0
BITMAP
0007FF
001FFF
007FFF
00FFFF
01FFFF
01FFFF
03FFFF
03FFFF
03FF00
03FE00
03FE00
03FE00
03FE00
FFFFFF
FFFFFF
FFFFFF
FFFFFF
FFFFFF
FFFFFF
FFFFFF
03FE00
03FE00
03FE00
03FE00
03FE00
03FE00
03FE00
03FE00
03FE00
03FE00
03FE00
03FE00
03FE00
03FE00
03FE00
03FE00
03FE00
03FE00
03FE00
03FE00
03FE00
03FE00
03FE00
03FE00
03FE00
03FE00
03FE00
03FE00
03FE00
03FE00
ENDCHAR
STARTCHAR 0067
ENCODING 103
SWIDTH 617 0
DWIDTH 42 0
BBX 35 55 3 -17
BITMAP
0007F80000
003FFF1FE0
00FFFFDFE0
01FFFFFFE0
07FFFFFFE0
0FFFFFFFE0
0FFFFFFFE0
1FFFFFFFE0
3FFF07FFE0
3FFC01FFE0
7FF800FFE0
7FF0007FE0
7FE0007FE0
FFE0003FE0
FFC0003FE0
FFC0003FE0
FFC0003FE0
FFC0003FE0
FFC0001FE0
FFC0001FE0
FFC0001FE0
FFC0001FE0
FFC0003FE0
FFC0003FE0
FFC0003FE0
FFE0003FE0
7FE0007FE0
7FF0007FE0
7FF000FFE0
3FFC01FFE0
3FFF0FFFE0
1FFFFFFFE0
0FFFFFFFE0
0FFFFFFFE0
07FFFFFFE0
01FFFFFFE0
00FFFFFFE0
003FFF7FE0
000FF87FE0
0000007FE0
0000007FE0
0000007FE0
0000007FE0
003000FFC0
00F801FFC0
03FC03FFC0
0FFFFFFFC0
1FFFFFFF80
0FFFFFFF80
07FFFFFF00
03FFFFFE00
01FFFFFC00
00FFFFF000
003FFFC000
0007FE0000
ENDCHAR
STARTCHAR 0068
ENCODING 104
SWIDTH 631 0
DWIDTH 43 0
BBX 34 49 5 0
BITMAP
FF00000000
FF00000000
FF00000000
FF00000000
FF00000000
FF00000000
FF00000000
FF00000000
FF00000000
FF00000000
FF00000000
FF003E0000
FF07FFC000
FF1FFFF000
FF3FFFF800
FF7FFFFC00
FFFFFFFE00
FFFFFFFF00
FFFFFFFF00
FFFFFFFF80
FFFC0FFF80
FFF003FF80
FFE001FFC0
FFE001FFC0
FFC000FFC0
FFC000FFC0
FF8000FFC0
FF80007FC0
FF80007FC0
FF80007FC0
FF80007FC0
FF80007FC0
FF80007FC0
FF80007FC0
FF80007FC0
FF80007FC0
FF80007FC0
FF80007FC0
FF80007FC0
FF80007FC0
FF80007FC0
FF80007FC0
FF80007FC0
FF80007FC0
FF80007FC0
FF80007FC0
FF80007FC0
FF80007FC0
FF80007FC0
ENDCHAR
STARTCHAR 0069
ENCODING 105
SWIDTH 293 0
DWIDTH 20 0
BBX 10 50 5 0
BITMAP
FFC0
FFC0
FFC0
FFC0
FFC0
FFC0
FFC0
FFC0
0000
0000
0000
0000
0000
FFC0
FFC0
FFC0
FFC0
FFC0
FFC0
FFC0
FFC0
FFC0
FFC0
FFC0
FFC0
FFC0
FFC0
FFC0
FFC0
FFC0
FFC0
FFC0
FFC0
FFC0
FFC0
FFC0
FFC0
FFC0
FFC0
FFC0
FFC0
FFC0
FFC0
FFC0
FFC0
FFC0
FFC0
FFC0
FFC0
FFC0
ENDCHAR
STARTCHAR 006A
ENCODING 106
SWIDTH 293 0
DWIDTH 20 0
BBX 17 67 -1 -17
BITMAP
01FF80
01FF80
01FF80
01FF80
01FF80
01FF80
01FF80
01FF80
000000
000000
000000
000000
000000
01FF80
01FF80
01FF80
01FF80
01FF80
01FF80
01FF80
01FF80
01FF80
01FF80
01FF80
01FF80
01FF80
01FF80
01FF80
01FF80
01FF80
01FF80
01FF80
01FF80
01FF80
01FF80
01FF80
01FF80
01FF80
01FF80
01FF80
01FF80
01FF80
01FF80
01FF80
01FF80
01FF80
01FF80
01FF80
01FF80
01FF80
01FF80
01FF80
01FF80
01FF80
01FF80
01FF80
03FF80
07FF80
FFFF80
FFFF00
FFFF00
FFFF00
FFFE00
FFFC00
FFF800
FFF000
FF8000
ENDCHAR
STARTCHAR 006B
ENCODING 107
SWIDTH 558 0
DWIDTH 38 0
BBX 34 49 5 0
BITMAP
FF80000000
FF80000000
FF80000000
FF80000000
FF80000000
FF80000000
FF80000000
FF80000000
FF80000000
FF80000000
FF80000000
FF80000000
FF8007FF80
FF8007FF00
FF800FFE00
FF801FFE00
FF803FFC00
FF803FF800
FF807FF000
FF80FFF000
FF80FFE000
FF81FFC000
FF83FFC000
FF83FF8000
FF87FF0000
FF8FFE0000
FF9FFE0000
FF9FFC0000
FFBFF80000
FFFFF00000
FFFFF00000
FFFFF80000
FFBFF80000
FF9FFC0000
FF9FFE0000
FF8FFF0000
FF87FF0000
FF83FF8000
FF83FFC000
FF81FFE000
FF80FFE000
FF80FFF000
FF807FF800
FF803FFC00
FF801FFC00
FF801FFE00
FF800FFF00
FF8007FF80
FF8007FFC0
ENDCHAR
STARTCHAR 006C
ENCODING 108
SWIDTH 293 0
DWIDTH 20 0
BBX 10 49 5 0
BITMAP
FFC0
FFC0
FFC0
FFC0
FFC0
FFC0
FFC0
FFC0
FFC0
FFC0
FFC0
FFC0
FFC0
FFC0
FFC0
FFC0
FFC0
FFC0
FFC0
FFC0
FFC0
FFC0
FFC0
FFC0
FFC0
FFC0
FFC0
FFC0
FFC0
FFC0
FFC0
FFC0
FFC0
FFC0
FFC0
FFC0
FFC0
FFC0
FFC0
FFC0
FFC0
FFC0
FFC0
FFC0
FFC0
FFC0
FFC0
FFC0
FFC0
ENDCHAR
STARTCHAR 006D
ENCODING 109
SWIDTH 911 0
DWIDTH 62 0
BBX 53 38 5 0
BITMAP
0001FE0007F000
FF0FFF803FFE00
FF3FFFE0FFFF80
FF7FFFF1FFFFC0
FFFFFFF3FFFFE0
FFFFFFFFFFFFE0
FFFFFFFFFFFFF0
FFFFFFFFFFFFF0
FFFC7FFFF1FFF8
FFF01FFFC07FF8
FFE00FFF803FF8
FFC007FF001FF8
FF8007FF001FF8
FF8003FE000FF8
FF8003FE000FF8
FF8003FE000FF8
FF8003FE000FF8
FF8003FE000FF8
FF8003FE000FF8
FF8003FE000FF8
FF8003FE000FF8
FF8003FE000FF8
FF8003FE000FF8
FF8003FE000FF8
FF8003FE000FF8
FF8003FE000FF8
FF8003FE000FF8
FF8003FE000FF8
FF8003FE000FF8
FF8003FE000FF8
FF8003FE000FF8
FF8003FE000FF8
FF8003FE000FF8
FF8003FE000FF8
FF8003FE000FF8
FF8003FE000FF8
FF8003FE000FF8
FF8003FE000FF8
ENDCHAR
STARTCHAR 006E
ENCODING 110
SWIDTH 631 0
DWIDTH 43 0
BBX 34 38 5 0
BITMAP
0001FF0000
FF0FFFE000
FF1FFFF000
FF7FFFFC00
FFFFFFFE00
FFFFFFFE00
FFFFFFFF00
FFFFFFFF00
FFFFFFFF80
FFF807FF80
FFF003FF80
FFE001FFC0
FFC001FFC0
FFC000FFC0
FFC000FFC0
FF8000FFC0
FF80007FC0
FF80007FC0
FF80007FC0
FF80007FC0
FF80007FC0
FF80007FC0
FF80007FC0
FF80007FC0
FF80007FC0
FF80007FC0
FF80007FC0
FF80007FC0
FF80007FC0
FF80007FC0
FF80007FC0
FF80007FC0
FF80007FC0
FF80007FC0
FF80007FC0
FF80007FC0
FF80007FC0
FF80007FC0
ENDCHAR
STARTCHAR 006F
ENCODING 111
SWIDTH 631 0
DWIDTH 43 0
BBX 37 39 3 -1
BITMAP
0003FE0000
001FFFC000
007FFFF000
01FFFFFC00
03FFFFFE00
07FFFFFF00
0FFFFFFF80
1FFFFFFF80
1FFFFFFFC0
3FFC03FFE0
7FF800FFE0
7FF0007FF0
7FE0007FF0
FFE0003FF0
FFC0003FF0
FFC0001FF8
FFC0001FF8
FFC0001FF8
FFC0001FF8
FFC0001FF8
FFC0001FF8
FFC0001FF8
FFC0001FF8
FFC0001FF8
FFC0003FF0
FFE0003FF0
7FE0007FF0
7FF0007FF0
7FF800FFE0
3FFC03FFE0
1FFFFFFFC0
1FFFFFFF80
0FFFFFFF80
07FFFFFF00
03FFFFFE00
01FFFFFC00
007FFFF000
001FFFC000
0003FE0000
ENDCHAR
STARTCHAR 0070
ENCODING 112
SWIDTH 617 0
DWIDTH 42 0
BBX 35 54 5 -16
BITMAP
0007FC0000
FF3FFF8000
FF7FFFC000
FFFFFFF000
FFFFFFF800
FFFFFFFC00
FFFFFFFE00
FFFFFFFE00
FFFC3FFF00
FFF007FF80
FFC003FF80
FFC001FF80
FF8001FFC0
FF8000FFC0
FF0000FFC0
FF0000FFC0
FF00007FE0
FF00007FE0
FF00007FE0
FF00007FE0
FF00007FE0
FF00007FE0
FF00007FE0
FF0000FFC0
FF0000FFC0
FF8000FFC0
FF8001FFC0
FFC001FF80
FFC003FF80
FFF007FF80
FFFC3FFF00
FFFFFFFE00
FFFFFFFE00
FFFFFFFC00
FFFFFFF800
FFFFFFF000
FFFFFFE000
FFBFFF8000
FF83FC0000
FF80000000
FF80000000
FF80000000
FF80000000
FF80000000
FF80000000
FF80000000
FF80000000
FF80000000
FF80000000
FF80000000
FF80000000
FF80000000
FF80000000
FF80000000
ENDCHAR
STARTCHAR 0071
ENCODING 113
SWIDTH 631 0
DWIDTH 43 0
BBX 35 54 3 -16
BITMAP
0007F80000
003FFF1FE0
00FFFFDFE0
01FFFFFFE0
07FFFFFFE0
0FFFFFFFE0
0FFFFFFFE0
1FFFFFFFE0
3FFF07FFE0
3FFC01FFE0
7FF800FFE0
7FF0007FE0
7FE0007FE0
FFE0003FE0
FFC0003FE0
FFC0003FE0
FFC0003FE0
FFC0003FE0
FFC0001FE0
FFC0001FE0
FFC0001FE0
FFC0001FE0
FFC0003FE0
FFC0003FE0
FFC0003FE0
FFE0003FE0
7FE0007FE0
7FF0007FE0
7FF000FFE0
3FFC01FFE0
3FFF0FFFE0
1FFFFFFFE0
0FFFFFFFE0
0FFFFFFFE0
07FFFFFFE0
01FFFFFFE0
00FFFFFFE0
003FFF7FE0
000FF87FE0
0000007FE0
0000007FE0
0000007FE0
0000007FE0
0000007FE0
0000007FE0
0000007FE0
0000007FE0
0000007FE0
0000007FE0
0000007FE0
0000007FE0
0000007FE0
0000007FE0
0000007FE0
ENDCHAR
STARTCHAR 0072
ENCODING 114
SWIDTH 411 0
DWIDTH 28 0
BBX 21 37 5 0
BITMAP
FF01F8
FF0FF8
FF1FF8
FF3FF8
FF7FF8
FFFFF8
FFFFF8
FFFFF8
FFFFC8
FFFC00
FFF000
FFE000
FFE000
FFC000
FFC000
FF8000
FF8000
FF8000
FF8000
FF8000
FF8000
FF8000
FF8000
FF8000
FF8000
FF8000
FF8000
FF8000
FF8000
FF8000
FF8000
FF8000
FF8000
FF8000
FF8000
FF8000
FF8000
ENDCHAR
STARTCHAR 0073
ENCODING 115
SWIDTH 543 0
DWIDTH 37 0
BBX 31 39 3 -1
BITMAP
001FF000
00FFFF00
03FFFFC0
0FFFFFE0
1FFFFFF0
1FFFFFF8
3FFFFFFC
3FFFFFFC
7FF03FFE
7FE00FFE
7FC007FE
7FC007F0
7FE00200
7FF00000
7FFE0000
3FFFC000
3FFFFC00
1FFFFF80
0FFFFFE0
07FFFFF0
01FFFFF8
003FFFFC
0007FFFE
00007FFE
00000FFE
000007FE
3F8003FE
FFC003FE
FFE003FE
FFF007FE
7FFC0FFE
7FFFFFFE
3FFFFFFC
3FFFFFFC
1FFFFFF8
0FFFFFF0
03FFFFC0
00FFFF80
001FF800
ENDCHAR
STARTCHAR 0074
ENCODING 116
SWIDTH 440 0
DWIDTH 30 0
BBX 26 48 1 -2
BITMAP
03FE0000
03FE0000
03FE0000
03FE0000
03FE0000
03FE0000
03FE0000
03FE0000
03FE0000
03FE0000
FFFFFFC0
FFFFFFC0
FFFFFFC0
FFFFFFC0
FFFFFFC0
FFFFFFC0
FFFFFFC0
03FE0000
03FE0000
03FE0000
03FE0000
03FE0000
03FE0000
03FE0000
03FE0000
03FE0000
03FE0000
03FE0000
03FE0000
03FE0000
03FE0000
03FE0000
03FE0000
03FE0000
03FE0000
03FE0000
03FE0000
03FF0000
03FF8000
03FFC000
03FFFFC0
01FFFFC0
01FFFFC0
00FFFFC0
007FFFC0
003FFFC0
001FFFC0
0003FF80
ENDCHAR
STARTCHAR 0075
ENCODING 117
SWIDTH 631 0
DWIDTH 43 0
BBX 35 38 4 -1
BITMAP
FF80007FE0
FF80007FE0
FF80007FE0
FF80007FE0
FF80007FE0
FF80007FE0
FF80007FE0
FF80007FE0
FF80007FE0
FF80007FE0
FF80007FE0
FF80007FE0
FF80007FE0
FF80007FE0
FF80007FE0
FF80007FE0
FF80007FE0
FF80007FE0
FF80007FE0
FF80007FE0
FFC0007FE0
FFC0007FE0
FFC0007FE0
FFC0007FE0
FFC000FFE0
FFE000FFE0
7FE001FFE0
7FF003FFE0
7FFC07FFE0
7FFFFFFFE0
3FFFFFFFE0
3FFFFFFFE0
1FFFFFFFE0
0FFFFFFFE0
07FFFFBFE0
03FFFF3FE0
01FFFC3FE0
003FE00000
ENDCHAR
STARTCHAR 0076
ENCODING 118
SWIDTH 573 0
DWIDTH 39 0
BBX 35 37 2 0
BITMAP
FF80003FE0
FF80003FE0
FF80007FC0
7FC0007FC0
7FC000FFC0
7FC000FF80
3FE000FF80
3FE001FF80
3FF001FF00
1FF001FF00
1FF003FF00
1FF803FE00
0FF803FE00
0FF807FC00
07FC07FC00
07FC07FC00
07FC0FF800
03FE0FF800
03FE0FF800
03FE1FF000
01FF1FF000
01FF1FF000
01FF3FE000
00FFBFE000
00FFBFC000
007FFFC000
007FFFC000
007FFF8000
003FFF8000
003FFF8000
003FFF0000
001FFF0000
001FFF0000
001FFE0000
000FFE0000
000FFE0000
000FFC0000
ENDCHAR
STARTCHAR 0077
ENCODING 119
SWIDTH 808 0
DWIDTH 55 0
BBX 52 37 2 0
BITMAP
FF8003FC001FF0
FF8007FC001FF0
FF8007FC003FE0
FF8007FE003FE0
7FC00FFE003FE0
7FC00FFE007FC0
7FC00FFF007FC0
3FE00FFF007FC0
3FE01FFF00FF80
3FE01FFF00FF80
1FF01FFF80FF80
1FF03FFF81FF80
1FF03FFF81FF00
1FF03FFFC1FF00
0FF87FBFC1FF00
0FF87F9FC3FE00
0FF87F9FE3FE00
07FCFF1FE3FE00
07FCFF0FE7FC00
07FCFF0FF7FC00
03FEFE0FF7FC00
03FFFE07FFFC00
03FFFE07FFF800
03FFFC07FFF800
01FFFC03FFF800
01FFF803FFF000
01FFF803FFF000
00FFF801FFF000
00FFF001FFE000
00FFF001FFE000
007FF000FFE000
007FE000FFC000
007FE000FFC000
003FE0007FC000
003FC0007FC000
003FC0007F8000
003FC0003F8000
ENDCHAR
STARTCHAR 0078
ENCODING 120
SWIDTH 558 0
DWIDTH 38 0
BBX 36 37 1 0
BITMAP
FFE0007FF0
7FF000FFE0
3FF800FFE0
3FF801FFC0
1FFC03FF80
0FFE03FF00
07FE07FF00
07FF0FFE00
03FF8FFC00
01FF9FFC00
01FFFFF800
00FFFFF000
007FFFF000
007FFFE000
003FFFC000
001FFF8000
000FFF8000
000FFF0000
0007FF0000
000FFF0000
001FFF8000
001FFFC000
003FFFC000
007FFFE000
00FFFFF000
00FFFFF800
01FFDFF800
03FF9FFC00
03FF0FFE00
07FF07FE00
0FFE07FF00
0FFC03FF80
1FFC01FF80
3FF801FFC0
7FF000FFE0
7FF0007FF0
FFE0007FF0
ENDCHAR
STARTCHAR 0079
ENCODING 121
SWIDTH 573 0
DWIDTH 39 0
BBX 38 53 1 -16
BITMAP
FF80000FFC
FFC0000FF8
7FC0000FF8
7FE0001FF0
7FE0001FF0
3FE0003FF0
3FF0003FE0
1FF0003FE0
1FF8007FC0
0FF8007FC0
0FF800FFC0
0FFC00FF80
07FC00FF80
07FC01FF80
03FE01FF00
03FE01FF00
03FF03FE00
01FF03FE00
01FF07FE00
00FF87FC00
00FF87FC00
00FFCFF800
007FCFF800
007FCFF800
003FFFF000
003FFFF000
003FFFE000
001FFFE000
001FFFE000
000FFFC000
000FFFC000
000FFF8000
0007FF8000
0007FF8000
0003FF0000
0003FF0000
0003FF0000
0003FE0000
0003FE0000
0007FC0000
0007FC0000
0007FC0000
000FF80000
000FF80000
000FF00000
001FF00000
001FF00000
003FE00000
003FE00000
003FC00000
007FC00000
007FC00000
007F800000
ENDCHAR
STARTCHAR 007A
ENCODING 122
SWIDTH 528 0
DWIDTH 36 0
BBX 33 37 1 0
BITMAP
3FFFFFFF80
3FFFFFFF00
3FFFFFFF00
3FFFFFFE00
3FFFFFFE00
3FFFFFFC00
3FFFFFF800
3FFFFFF800
00003FF000
00007FE000
00007FE000
0000FFC000
0000FF8000
0001FF8000
0003FF0000
0003FE0000
0007FE0000
000FFC0000
000FFC0000
001FF80000
003FF00000
003FF00000
007FE00000
00FFC00000
00FFC00000
01FF800000
03FF000000
03FF000000
07FE000000
0FFFFFFF00
0FFFFFFF00
1FFFFFFF00
1FFFFFFF00
3FFFFFFF00
7FFFFFFF00
7FFFFFFF00
FFFFFFFF00
ENDCHAR
STARTCHAR 007B
ENCODING 123
SWIDTH 455 0
DWIDTH 31 0
BBX 20 75 9 -14
BITMAP
001FF0
007FF0
01FFF0
01FFF0
03FFF0
07FFF0
07FFF0
07FFF0
07FFF0
07FC00
07F800
07F800
07F800
07F800
07F800
07F800
07F800
07F800
07F800
07F800
07F800
07F800
07F800
07F800
07F800
07F800
07F800
07F800
07F800
07F800
0FF800
0FF800
1FF800
3FF800
3FF000
7FF000
7FE000
FFC000
7FE000
7FF000
3FF000
3FF800
1FF800
0FF800
0FF800
07F800
07F800
07F800
07F800
07F800
07F800
07F800
07F800
07F800
07F800
07F800
07F800
07F800
07F800
07F800
07F800
07F800
07F800
07F800
07F800
07FC00
07FFF0
07FFF0
07FFF0
07FFF0
03FFF0
01FFF0
01FFF0
007FF0
001FF0
ENDCHAR
STARTCHAR 007C
ENCODING 124
SWIDTH 323 0
DWIDTH 22 0
BBX 9 49 6 0
BITMAP
FF80
FF80
FF80
FF80
FF80
FF80
FF80
FF80
FF80
FF80
FF80
FF80
FF80
FF80
FF80
FF80
FF80
FF80
FF80
FF80
FF80
FF80
FF80
FF80
FF80
FF80
FF80
FF80
FF80
FF80
FF80
FF80
FF80
FF80
FF80
FF80
FF80
FF80
FF80
FF80
FF80
FF80
FF80
FF80
FF80
FF80
FF80
FF80
FF80
ENDCHAR
STARTCHAR 007D
ENCODING 125
SWIDTH 455 0
DWIDTH 31 0
BBX 19 75 3 -14
BITMAP
FF0000
FFC000
FFF000
FFF800
FFF800
FFFC00
FFFC00
FFFC00
FFFC00
07FE00
03FE00
03FE00
03FE00
03FE00
03FE00
03FE00
03FE00
03FE00
03FE00
03FE00
03FE00
03FE00
03FE00
03FE00
03FE00
03FE00
03FE00
03FE00
03FE00
03FE00
03FE00
03FE00
03FF00
01FF80
01FFC0
00FFC0
00FFE0
007FE0
00FFE0
00FFC0
01FFC0
01FF80
03FF00
03FE00
03FE00
03FE00
03FE00
03FE00
03FE00
03FE00
03FE00
03FE00
03FE00
03FE00
03FE00
03FE00
03FE00
03FE00
03FE00
03FE00
03FE00
03FE00
03FE00
03FE00
03FE00
07FE00
FFFC00
FFFC00
FFFC00
FFFC00
FFF800
FFF800
FFF000
FFC000
FF0000
ENDCHAR
STARTCHAR 007E
ENCODING 126
SWIDTH 734 0
DWIDTH 50 0
BBX 36 17 7 13
BITMAP
03F8000000
0FFE000000
1FFF801FE0
3FFFC01FE0
7FFFE01FE0
7FFFF81FF0
7FFFFC1FF0
FFFFFF3FF0
FFFFFFFFF0
FFCFFFFFE0
FF83FFFFE0
FF81FFFFE0
FF80FFFFC0
7F803FFFC0
7F801FFF80
000007FF00
000001FC00
ENDCHAR
STARTCHAR 00A0
ENCODING 160
SWIDTH 205 0
DWIDTH 14 0
BBX 0 0 0 0
BITMAP
ENDCHAR
STARTCHAR 00A1
ENCODING 161
SWIDTH 382 0
DWIDTH 26 0
BBX 9 49 8 -12
BITMAP
FF80
FF80
FF80
FF80
FF80
FF80
FF80
FF80
0000
0000
0000
0000
FF80
FF80
FF80
FF80
FF80
FF80
FF80
FF80
FF80
FF80
FF80
FF80
FF80
FF80
FF80
FF80
FF80
FF80
FF80
FF80
FF80
FF80
FF80
FF80
FF80
FF80
FF80
FF80
FF80
FF80
FF80
FF80
FF80
FF80
FF80
FF80
FF80
ENDCHAR
STARTCHAR 00A2
ENCODING 162
SWIDTH 587 0
DWIDTH 40 0
BBX 34 51 3 -2
BITMAP
0001FC0000
0001FC0000
0001FC0000
0001FC0000
0001FC0000
0001FC0000
0003FC0000
001FFF8000
007FFFF000
01FFFFF800
03FFFFFC00
07FFFFFE00
0FFFFFFF00
1FFFFFFF80
1FFFFFFF80
3FFC07FFC0
7FF801FFC0
7FF000FFC0
7FE000FFC0
FFE0007C00
FFC0006000
FFC0000000
FFC0000000
FFC0000000
FFC0000000
FFC0000000
FFC0000000
FFC0000000
FFC0000000
FFC0000000
FFC0000000
FFE0007800
7FE000FFC0
7FF000FFC0
7FF801FFC0
3FFC03FFC0
3FFFFFFF80
1FFFFFFF80
0FFFFFFF00
07FFFFFE00
03FFFFFC00
01FFFFF800
00FFFFF000
003FFFC000
0007FC0000
0001FC0000
0001FC0000
0001FC0000
0001FC0000
0001FC0000
0001FC0000
ENDCHAR
STARTCHAR 00A3
ENCODING 163
SWIDTH 573 0
DWIDTH 39 0
BBX 33 50 3 0
BITMAP
0001FE0000
000FFF8000
001FFFE000
007FFFF000
00FFFFF800
01FFFFFC00
01FFFFFC00
03FFFFFE00
03FFFFFE00
07FF03FF00
07FE01FF00
07FE01FF80
07FC00FF80
07FC00FC00
07FC006000
07FC000000
07FC000000
07FC000000
07FC000000
07FC000000
07FC000000
FFFFFF0000
FFFFFF0000
FFFFFF0000
FFFFFF0000
FFFFFF0000
FFFFFF0000
FFFFFF0000
FFFFFF0000
FFFFFF0000
07FC000000
07FC000000
07FC000000
07FC000000
07FC000000
07FC000000
07FC000000
07FC000000
0FFC000000
0FFC000000
1FFC000000
FFFFFFF800
FFFFFFF800
FFFFFFF800
FFFFFFF800
FFFFFFF800
FFFFFFF800
FFFFFFF800
FFFFFFF800
FFFFFFF800
ENDCHAR
STARTCHAR 00A4
ENCODING 164
SWIDTH 675 0
DWIDTH 46 0
BBX 42 41 2 4
BITMAP
060000001800
0F0000003C00
1F8000007E00
3FC07F80FF00
7FE3FFF1FF80
7FFFFFFFFFC0
7FFFFFFFFFC0
3FFFFFFFFF80
1FFFFFFFFF00
0FFFFFFFFE00
07FFFFFFFC00
03FF807FF800
07FE001FF800
07FC000FF800
0FF80007FC00
0FF80003FC00
0FF00003FE00
0FF00001FE00
1FE00001FE00
1FE00001FE00
1FE00001FE00
1FE00001FE00
1FE00001FE00
0FF00001FE00
0FF00003FE00
0FF80003FC00
0FF80007FC00
07FC000FF800
07FE001FF800
03FF807FF800
07FFFFFFFC00
0FFFFFFFFE00
1FFFFFFFFF00
3FFFFFFFFF80
7FFFFFFFFFC0
FFFFFFFFFFC0
7FE3FFF1FF80
3FC07FC0FF00
1F8000007E00
0F0000003C00
060000001800
ENDCHAR
STARTCHAR 00A5
ENCODING 165
SWIDTH 631 0
DWIDTH 43 0
BBX 43 49 0 0
BITMAP
FFE00000FFE0
7FF00001FFC0
7FF00001FF80
3FF80003FF80
1FF80007FF00
1FFC0007FF00
0FFE000FFE00
0FFE000FFE00
07FF001FFC00
07FF001FF800
03FF803FF800
01FF807FF000
01FFC07FF000
00FFE0FFE000
00FFE0FFE000
007FF1FFC000
007FF1FF8000
003FFBFF8000
001FFFFF0000
001FFFFF0000
000FFFFE0000
000FFFFC0000
0007FFFC0000
0003FFF80000
01FFFFFFF000
01FFFFFFF000
01FFFFFFF000
01FFFFFFF000
01FFFFFFF000
01FFFFFFF000
01FFFFFFF000
00007FC00000
00007FC00000
00007FC00000
00007FC00000
00007FC00000
01FFFFFFF000
01FFFFFFF000
01FFFFFFF000
01FFFFFFF000
01FFFFFFF000
01FFFFFFF000
01FFFFFFF000
00007FC00000
00007FC00000
00007FC00000
00007FC00000
00007FC00000
00007FC00000
ENDCHAR
STARTCHAR 00A6
ENCODING 166
SWIDTH 323 0
DWIDTH 22 0
BBX 9 64 6 -15
BITMAP
FF80
FF80
FF80
FF80
FF80
FF80
FF80
FF80
FF80
FF80
FF80
FF80
FF80
FF80
FF80
FF80
FF80
FF80
FF80
FF80
FF80
FF80
FF80
FF80
FF80
FF80
FF80
FF80
FF80
0000
0000
0000
0000
0000
0000
FF80
FF80
FF80
FF80
FF80
FF80
FF80
FF80
FF80
FF80
FF80
FF80
FF80
FF80
FF80
FF80
FF80
FF80
FF80
FF80
FF80
FF80
FF80
FF80
FF80
FF80
FF80
FF80
FF80
ENDCHAR
STARTCHAR 00A7
ENCODING 167
SWIDTH 543 0
DWIDTH 37 0
BBX 31 54 3 -9
BITMAP
003FE000
01FFFC00
03FFFF00
0FFFFF80
1FFFFFC0
1FFFFFE0
3FFFFFF0
3FFFFFF0
7FF07FF8
7FC03FF8
7FC01FF8
7FC01FC0
7FE00000
7FF00000
7FFE0000
3FFFE000
3FFFFE00
1FFFFF80
0FFFFFE0
03FFFFF8
0FFFFFFC
1FFFFFFC
3FFBFFFE
7FE03FFE
7FC00FFE
7FC003FE
FF8003FE
FFC003FE
FFE003FE
FFF807FE
7FFF8FFE
7FFFFFFC
3FFFFFF8
1FFFFFF0
0FFFFFE0
03FFFFF0
007FFFF8
000FFFFC
0000FFFC
00001FFE
000007FE
0FC007FE
FFE007FE
7FE007FE
7FF007FE
7FFC1FFC
3FFFFFFC
3FFFFFF8
1FFFFFF8
0FFFFFF0
07FFFFE0
03FFFFC0
00FFFF00
001FF800
ENDCHAR
STARTCHAR 00A8
ENCODING 168
SWIDTH 573 0
DWIDTH 39 0
BBX 23 8 8 54
BITMAP
FF01FE
FF01FE
FF01FE
FF01FE
FF01FE
FF01FE
FF01FE
FF01FE
ENDCHAR
STARTCHAR 00A9
ENCODING 169
SWIDTH 911 0
DWIDTH 62 0
BBX 58 59 2 -5
BITMAP
0000003F00000000
000007FFF8000000
00003FFFFF000000
0000FFFFFFC00000
0003FFFFFFF00000
0007FFFFFFFC0000
001FFFFFFFFE0000
003FFFFFFFFF0000
007FFFFFFFFF8000
00FFFF807FFFC000
01FFFC0007FFE000
03FFE00001FFF000
03FFC00000FFF800
07FF0000003FF800
0FFE0000001FFC00
0FFC003FC00FFC00
1FF801FFF007FE00
1FF803FFFC03FE00
3FF00FFFFE03FF00
3FE01FFFFF01FF00
7FE01FFFFF81FF80
7FC03FFBFF80FF80
7FC07FC07FC0FF80
7FC07F803FC07FC0
FF807F001F807FC0
FF80FF001C007FC0
FF80FF0000007FC0
FF80FE0000007FC0
FF80FE0000007FC0
FF80FE0000007FC0
FF80FE0000007FC0
FF80FE0000007FC0
FF80FF0000007FC0
FF80FF0000007FC0
FF807F001C007FC0
7F807F803FC07FC0
7FC07FC03FC0FF80
7FC03FE0FF80FF80
7FE03FFFFF80FF80
3FE01FFFFF01FF00
3FF00FFFFE03FF00
3FF007FFFC03FF00
1FF803FFF807FE00
1FFC00FFF00FFE00
0FFE0007001FFC00
07FF0000003FFC00
07FF8000007FF800
03FFE00001FFF000
01FFF80007FFE000
00FFFF803FFFC000
007FFFFFFFFF8000
003FFFFFFFFF0000
001FFFFFFFFE0000
000FFFFFFFFC0000
0003FFFFFFF00000
0000FFFFFFC00000
00003FFFFF000000
000007FFF8000000
0000003F00000000
ENDCHAR
STARTCHAR 00AA
ENCODING 170
SWIDTH 323 0
DWIDTH 22 0
BBX 16 20 3 18
BITMAP
07F0
1FFC
3FFE
7FFE
7E3F
781F
080F
01FF
1FFF
3FFF
7FFF
FE1F
F81F
F01F
F03F
F87F
FFFF
7FEF
3FCF
0600
ENDCHAR
STARTCHAR 00AB
ENCODING 171
SWIDTH 602 0
DWIDTH 41 0
BBX 31 30 6 3
BITMAP
00180060
003C0070
007E00FC
00FF01FE
00FF03FC
01FE07F8
03FC07F8
07F80FF0
0FF01FE0
0FF03FC0
1FE07F80
3FC07F80
7F80FF00
FF01FE00
FF03FC00
FF01FC00
7F81FE00
3F80FF00
3FC07F80
1FE03FC0
0FF01FC0
07F81FE0
03F80FF0
03FC07F8
01FE03FC
00FF01FC
007F01FE
007E00F8
00380070
00100020
ENDCHAR
STARTCHAR 00AC
ENCODING 172
SWIDTH 602 0
DWIDTH 41 0
BBX 33 15 4 12
BITMAP
FFFFFFFF80
FFFFFFFF80
FFFFFFFF80
FFFFFFFF80
FFFFFFFF80
FFFFFFFF80
FFFFFFFF80
0000003F80
0000003F80
0000003F80
0000003F80
0000003F80
0000003F80
0000003F80
0000003F80
ENDCHAR
STARTCHAR 00AD
ENCODING 173
SWIDTH 426 0
DWIDTH 29 0
BBX 20 7 4 18
BITMAP
FFFFF0
FFFFF0
FFFFF0
FFFFF0
FFFFF0
FFFFF0
FFFFF0
ENDCHAR
STARTCHAR 00AE
ENCODING 174
SWIDTH 661 0
DWIDTH 45 0
BBX 35 36 5 18
BITMAP
0007FC0000
003FFF8000
007FFFE000
01FFFFF000
03FFFFF800
07FFFFFC00
0FFC07FE00
1FF001FF00
3FC0007F80
3F80003F80
7F0FF81FC0
7F0FFE0FC0
7E0FFF0FE0
FE0E0F07E0
FC0E0707E0
FC0E0707E0
FC0E0707E0
FC0E0F03E0
FC0FFE03E0
FC0FFE07E0
FC0FFC07E0
FC0E1C07E0
FE0E1E07E0
7E0E0E0FE0
7F0E0F0FC0
7F0E071FC0
3F80003F80
3FC0007F80
1FF001FF00
0FFC07FE00
07FFFFFE00
03FFFFFC00
01FFFFF000
007FFFE000
003FFF8000
0007FC0000
ENDCHAR
STARTCHAR 00AF
ENCODING 175
SWIDTH 514 0
DWIDTH 35 0
BBX 19 7 8 57
BITMAP
FFFFE0
FFFFE0
FFFFE0
FFFFE0
FFFFE0
FFFFE0
FFFFE0
ENDCHAR
STARTCHAR 00B0
ENCODING 176
SWIDTH 455 0
DWIDTH 31 0
BBX 25 25 2 25
BITMAP
007F0000
01FFC000
07FFF000
0FFFF800
1FFFFC00
3FFFFC00
3FFFFE00
7FFFFF00
7FC3FF00
FF80FF00
FF00FF00
FF007F00
FF007F80
FF007F00
FF00FF00
FF81FF00
7FC3FF00
7FFFFE00
3FFFFE00
3FFFFC00
1FFFFC00
0FFFF800
07FFE000
01FFC000
003E0000
ENDCHAR
STARTCHAR 00B1
ENCODING 177
SWIDTH 602 0
DWIDTH 41 0
BBX 33 33 4 4
BITMAP
0007F00000
0007F00000
0007F00000
0007F00000
0007F00000
0007F00000
0007F00000
FFFFFFFF80
FFFFFFFF80
FFFFFFFF80
FFFFFFFF80
FFFFFFFF80
FFFFFFFF80
FFFFFFFF80
0007F00000
0007F00000
0007F00000
0007F00000
0007F00000
0007F00000
0007F00000
0007F00000
0000000000
0000000000
0000000000
0000000000
FFFFFFFF80
FFFFFFFF80
FFFFFFFF80
FFFFFFFF80
FFFFFFFF80
FFFFFFFF80
FFFFFFFF80
ENDCHAR
STARTCHAR 00B2
ENCODING 178
SWIDTH 411 0
DWIDTH 28 0
BBX 22 31 3 19
BITMAP
00FE00
07FF80
0FFFC0
1FFFE0
3FFFF0
7FEFF8
7F03F8
7E01FC
FE00FC
FC00FC
0000FC
0000FC
0001FC
0001FC
0003F8
0007F8
001FF0
003FE0
007FC0
00FF80
01FF00
03FC00
07F800
0FF000
1FE000
7FC000
FFFFFC
FFFFFC
FFFFFC
FFFFFC
FFFFFC
ENDCHAR
STARTCHAR 00B3
ENCODING 179
SWIDTH 411 0
DWIDTH 28 0
BBX 21 31 3 18
BITMAP
7FFFF0
7FFFF0
7FFFF0
7FFFF0
7FFFF0
7FFFF0
000FE0
001FC0
007F80
00FF00
01FE00
07FE00
07FF80
03FFC0
03FFE0
01FFE0
000FF0
0003F0
0003F8
0001F8
0001F8
0001F8
1C03F8
FC03F0
FE07F0
7FFFF0
7FFFE0
3FFFC0
1FFF80
0FFF00
01F800
ENDCHAR
STARTCHAR 00B4
ENCODING 180
SWIDTH 558 0
DWIDTH 38 0
BBX 12 13 15 54
BITMAP
07F0
0FE0
0FE0
1FC0
1FC0
1F80
3F80
3F80
7F00
7F00
FE00
FE00
FC00
ENDCHAR
STARTCHAR 00B5
ENCODING 181
SWIDTH 646 0
DWIDTH 44 0
BBX 34 53 5 -16
BITMAP
FF80007FC0
FF80007FC0
FF80007FC0
FF80007FC0
FF80007FC0
FF80007FC0
FF80007FC0
FF80007FC0
FF80007FC0
FF80007FC0
FF80007FC0
FF80007FC0
FF80007FC0
FF80007FC0
FF80007FC0
FF80007FC0
FF80007FC0
FF80007FC0
FF80007FC0
FF80007FC0
FF80007FC0
FF80007FC0
FF8000FFC0
FFC000FFC0
FFC000FFC0
FFC001FFC0
FFE001FFC0
FFF003FFC0
FFF807FFC0
FFFFFFFFC0
FFFFFFFFC0
FFFFFFFFC0
FFFFFFFFC0
FFFFFFFFC0
FFFFFFBFC0
FFFFFE3FC0
FFFFF83FC0
FF7FC00000
FF00000000
FF00000000
FF00000000
FF00000000
FF00000000
FF00000000
FF00000000
FF00000000
FF00000000
FF00000000
FF00000000
FF00000000
FF00000000
FF00000000
FF00000000
ENDCHAR
STARTCHAR 00B6
ENCODING 182
SWIDTH 749 0
DWIDTH 51 0
BBX 45 59 3 -10
BITMAP
001FFFF80FF8
00FFFFF80FF8
03FFFFF80FF8
07FFFFF80FF8
0FFFFFF80FF8
1FFFFFF80FF8
3FFFFFF80FF8
3FFFFFF80FF8
7FFFFFF80FF8
7FFFFFF80FF8
FFFFFFF80FF8
FFFFFFF80FF8
FFFFFFF80FF8
FFFFFFF80FF8
FFFFFFF80FF8
FFFFFFF80FF8
FFFFFFF80FF8
FFFFFFF80FF8
FFFFFFF80FF8
FFFFFFF80FF8
FFFFFFF80FF8
FFFFFFF80FF8
7FFFFFF80FF8
7FFFFFF80FF8
7FFFFFF80FF8
3FFFFFF80FF8
1FFFFFF80FF8
1FFFFFF80FF8
0FFFFFF80FF8
03FFFFF80FF8
01FFFFF80FF8
003FFFF80FF8
00000FF80FF8
00000FF80FF8
00000FF80FF8
00000FF80FF8
00000FF80FF8
00000FF80FF8
00000FF80FF8
00000FF80FF8
00000FF80FF8
00000FF80FF8
00000FF80FF8
00000FF80FF8
00000FF80FF8
00000FF80FF8
00000FF80FF8
00000FF80FF8
00000FF80FF8
00000FF80FF8
00000FF80FF8
00000FF80FF8
00000FF80FF8
00000FF80FF8
00000FF80FF8
00000FF80FF8
00000FF80FF8
00000FF80FF8
00000FF80FF8
ENDCHAR
STARTCHAR 00B7
ENCODING 183
SWIDTH 279 0
DWIDTH 19 0
BBX 11 11 4 16
BITMAP
0E00
3F80
7FC0
FFE0
FFE0
FFE0
FFE0
FFE0
7FC0
3F80
1F00
ENDCHAR
STARTCHAR 00B8
ENCODING 184
SWIDTH 426 0
DWIDTH 29 0
BBX 12 17 8 -15
BITMAP
0F80
1F80
1F00
1F80
3FC0
3FE0
3FF0
0FF0
03F0
03F0
03F0
3FF0
7FF0
7FE0
7FE0
FFC0
7F00
ENDCHAR
STARTCHAR 00B9
ENCODING 185
SWIDTH 352 0
DWIDTH 24 0
BBX 12 31 4 18
BITMAP
07F0
1FF0
3FF0
FFF0
FFF0
FFF0
FFF0
F3F0
C3F0
83F0
03F0
03F0
03F0
03F0
03F0
03F0
03F0
03F0
03F0
03F0
03F0
03F0
03F0
03F0
03F0
03F0
03F0
03F0
03F0
03F0
03F0
ENDCHAR
STARTCHAR 00BA
ENCODING 186
SWIDTH 352 0
DWIDTH 24 0
BBX 18 19 3 19
BITMAP
03F000
0FFC00
3FFF00
3FFF00
7F3F80
FC0FC0
F807C0
F807C0
F807C0
F807C0
F807C0
F807C0
F807C0
FC0FC0
7E1F80
7FFF80
3FFF00
1FFE00
07F800
ENDCHAR
STARTCHAR 00BB
ENCODING 187
SWIDTH 602 0
DWIDTH 41 0
BBX 31 30 4 3
BITMAP
0C003000
1C007800
7E00FC00
FF01FE00
7F80FE00
3FC0FF00
3FC07F80
1FE03FC0
0FF01FE0
07F80FE0
03FC0FF0
03FC07F8
01FE03FC
00FF01FE
007F81FE
007F01FE
00FF03FC
01FE03F8
03FC07F8
07F80FF0
07F01FE0
0FF03FC0
1FE03F80
3FC07F80
7F80FF00
7F01FE00
FF01FC00
3E00FC00
1C003800
08001000
ENDCHAR
STARTCHAR 00BC
ENCODING 188
SWIDTH 1057 0
DWIDTH 72 0
BBX 60 50 4 0
BITMAP
0000000000100000
07F0000000380000
1FF00000007C0000
3FF0000000FE0000
FFF0000000FF0000
FFF0000001FF0000
FFF0000003FE0000
FFF0000003FC0000
F3F0000007F80000
C3F000000FF80000
83F000000FF00000
03F000001FE00000
03F000003FC00000
03F000007FC00000
03F000007F800000
03F00000FF000000
03F00001FF000000
03F00001FE000000
03F00003FC000000
03F00007F801FC00
03F0000FF801FC00
03F0000FF003F800
03F0001FE003F800
03F0003FE007F000
03F0003FC007F000
03F0007F8007E000
03F000FF000FE000
03F001FF000FC000
03F001FE001FC000
03F003FC001F8000
03F007F8003F8000
03F007F8003F0000
00000FF0007F1F80
00001FE0007E1F80
00001FE000FE1F80
00003FC000FE1F80
00007F8001FC1F80
0000FF0001FC1F80
0000FF0003F81F80
0001FE0003F81F80
0003FC0003FFFFF0
0003FC0003FFFFF0
0007F80003FFFFF0
000FF00003FFFFF0
001FE00003FFFFF0
001FE00000001F80
003FC00000001F80
000F800000001F80
0007800000001F80
0001000000001F80
ENDCHAR
STARTCHAR 00BD
ENCODING 189
SWIDTH 1043 0
DWIDTH 71 0
BBX 63 50 4 0
BITMAP
0000000000100000
07F0000000380000
1FF00000007C0000
3FF0000000FE0000
FFF0000000FF0000
FFF0000001FE0000
FFF0000003FE0000
FBF0000003FC0000
F3F0000007F80000
C3F000000FF80000
83F000000FF00000
03F000001FE00000
03F000003FC00000
03F000007FC00000
03F000007F800000
03F00000FF000000
03F00001FF000000
03F00001FE000000
03F00003FC000000
03F00007F800FFC0
03F0000FF803FFE0
03F0000FF007FFF0
03F0001FE00FFFF8
03F0003FE01FFFFC
03F0003FC01FE1FE
03F0007F803F80FE
03F000FF003F007E
03F001FF003F007E
03F001FE003F007E
03F003FC0000007E
03F007F80000007E
03F007F8000000FE
00000FF0000000FE
00001FE0000001FC
00003FE0000003FC
00003FC000000FF8
00007F8000001FF0
0000FF0000003FE0
0000FF0000007FC0
0001FE000000FF80
0003FC000001FE00
0007FC000003FC00
0007F8000007F800
000FF000000FF000
001FE000003FE000
001FE000003FFFFE
001FC000003FFFFE
000F8000003FFFFE
00078000003FFFFE
00010000003FFFFE
ENDCHAR
STARTCHAR 00BE
ENCODING 190
SWIDTH 1043 0
DWIDTH 71 0
BBX 64 50 3 0
BITMAP
0000000000010000
7FFFF0000001C000
7FFFF0000003E000
7FFFF0000007F000
7FFFF0000007F800
7FFFF000000FF000
7FFFF000001FF000
000FE000001FE000
001FC000003FC000
007F8000007FC000
00FF000000FF8000
01FE000000FF0000
07FE000001FE0000
07FF800003FE0000
03FFC00003FC0000
03FFE00007F80000
01FFE0000FF00000
000FF0001FF00000
0003F0001FE00000
0003F8003FC01FC0
0001F8007FC01FC0
0001F8007F801F80
0001F800FF003F80
1C03F801FE003F00
FC03F003FE007F00
FE07F003FC007E00
7FFFF007F800FE00
7FFFE00FF800FC00
3FFFC00FF001FC00
1FFF801FE001F800
0FFF003FC003F800
01F8007FC003F000
0000007F8007F1F8
000000FF0007F1F8
000001FF000FE1F8
000001FE000FE1F8
000003FC001FC1F8
000007F8001FC1F8
00000FF8001F81F8
00000FF0003F81F8
00001FE0003FFFFF
00003FC0003FFFFF
00003FC0003FFFFF
00007F80003FFFFF
0000FF00003FFFFF
0001FF00000001F8
0000FE00000001F8
00007C00000001F8
00003800000001F8
00000800000001F8
ENDCHAR
STARTCHAR 00BF
ENCODING 191
SWIDTH 558 0
DWIDTH 38 0
BBX 32 50 3 -13
BITMAP
000FFC00
000FFC00
000FFC00
000FFC00
000FFC00
000FFC00
000FFC00
000FFC00
000FFC00
000FFC00
00000000
00000000
00000000
000FFC00
000FFC00
000FFC00
000FFC00
001FF800
001FF800
003FF800
007FF000
00FFF000
01FFE000
03FFE000
07FFC000
07FF8000
0FFF0000
1FFE0000
1FFC0000
3FF80000
3FF00000
7FE00000
7FE00000
7FC00000
FFC00000
FFC00000
FFC003FF
FFC003FF
7FE003FE
7FE007FE
7FF80FFE
7FFFFFFC
3FFFFFFC
1FFFFFF8
1FFFFFF8
0FFFFFF0
07FFFFE0
01FFFF80
00FFFE00
001FF800
ENDCHAR
STARTCHAR 00C0
ENCODING 192
SWIDTH 675 0
DWIDTH 46 0
BBX 43 67 2 0
BITMAP
000FC0000000
000FE0000000
000FE0000000
0007F0000000
0007F0000000
0003F8000000
0003F8000000
0001F8000000
0001FC000000
0001FC000000
0000FE000000
0000FE000000
00007F000000
000000000000
000000000000
000000000000
000000000000
000000000000
0003FFF00000
0003FFF80000
0003FFF80000
0007FFF80000
0007FFFC0000
0007FFFC0000
000FFFFC0000
000FFFFC0000
000FFFFE0000
001FFBFE0000
001FFBFE0000
001FF3FF0000
001FF3FF0000
003FF1FF0000
003FF1FF8000
003FE1FF8000
007FE0FF8000
007FE0FF8000
007FC0FFC000
00FFC07FC000
00FFC07FC000
00FF807FE000
01FF803FE000
01FF803FE000
01FF003FF000
01FF003FF000
03FF001FF000
03FE001FF800
03FE001FF800
07FE000FF800
07FFFFFFF800
07FFFFFFFC00
0FFFFFFFFC00
0FFFFFFFFC00
0FFFFFFFFE00
1FFFFFFFFE00
1FFFFFFFFE00
1FFFFFFFFF00
1FFFFFFFFF00
3FF00001FF00
3FE00001FF80
3FE00001FF80
7FE00000FF80
7FE00000FF80
7FC00000FFC0
FFC000007FC0
FFC000007FC0
FF8000007FE0
FF8000007FE0
ENDCHAR
STARTCHAR 00C1
ENCODING 193
SWIDTH 675 0
DWIDTH 46 0
BBX 43 67 2 0
BITMAP
000000FE0000
000000FC0000
000001FC0000
000001FC0000
000003F80000
000003F80000
000007F00000
000007F00000
000007F00000
00000FE00000
00000FE00000
00001FC00000
00001FC00000
000000000000
000000000000
000000000000
000000000000
000000000000
0003FFF00000
0003FFF80000
0003FFF80000
0007FFF80000
0007FFFC0000
0007FFFC0000
000FFFFC0000
000FFFFC0000
000FFFFE0000
001FFFFE0000
001FFBFE0000
001FF3FF0000
001FF3FF0000
003FF1FF0000
003FE1FF8000
003FE1FF8000
007FE0FF8000
007FC0FF8000
007FC0FFC000
00FFC0FFC000
00FFC07FC000
00FF807FE000
01FF807FE000
01FF803FE000
01FF003FF000
01FF003FF000
03FF001FF000
03FE001FF800
03FE001FF800
07FE000FF800
07FFFFFFF800
07FFFFFFFC00
0FFFFFFFFC00
0FFFFFFFFC00
0FFFFFFFFE00
1FFFFFFFFE00
1FFFFFFFFE00
1FFFFFFFFF00
1FFFFFFFFF00
3FF00001FF00
3FE00001FF80
3FE00001FF80
7FE00000FF80
7FE00000FF80
7FC00000FFC0
FFC00000FFC0
FFC000007FC0
FF8000007FE0
FF8000007FE0
ENDCHAR
STARTCHAR 00C2
ENCODING 194
SWIDTH 675 0
DWIDTH 46 0
BBX 43 65 2 0
BITMAP
00007FC00000
0000FFC00000
0001FFE00000
0003FFF00000
0007FFF80000
000FFBFC0000
001FF3FE0000
001FE1FF0000
003FC0FF8000
007F807F8000
00FF003FC000
000000000000
000000000000
000000000000
000000000000
000000000000
0003FFF00000
0003FFF80000
0003FFF80000
0007FFF80000
0007FFFC0000
0007FFFC0000
000FFFFC0000
000FFFFC0000
000FFFFE0000
001FFFFE0000
001FFBFE0000
001FF3FF0000
001FF3FF0000
003FF1FF0000
003FE1FF8000
003FE1FF8000
007FE0FF8000
007FC0FF8000
007FC0FFC000
00FFC0FFC000
00FFC07FC000
00FF807FE000
01FF807FE000
01FF803FE000
01FF003FF000
01FF003FF000
03FF001FF000
03FE001FF800
03FE001FF800
07FE000FF800
07FFFFFFF800
07FFFFFFFC00
0FFFFFFFFC00
0FFFFFFFFC00
0FFFFFFFFE00
1FFFFFFFFE00
1FFFFFFFFE00
1FFFFFFFFF00
1FFFFFFFFF00
3FF00001FF00
3FE00001FF80
3FE00001FF80
7FE00000FF80
7FE00000FF80
7FC00000FFC0
FFC00000FFC0
FFC000007FC0
FF8000007FE0
FF8000007FE0
ENDCHAR
STARTCHAR 00C3
ENCODING 195
SWIDTH 675 0
DWIDTH 46 0
BBX 43 68 2 0
BITMAP
000100000000
001FE00F8000
003FF80FC000
003FFC0FC000
007FFF0FC000
007FFFFFC000
007FFFFFC000
007E3FFF8000
007E0FFF8000
007E07FF8000
007E01FF0000
0000007C0000
000000000000
000000000000
000000000000
000000000000
000000000000
000000000000
000000000000
0003FFF00000
0003FFF80000
0003FFF80000
0007FFF80000
0007FFFC0000
0007FFFC0000
000FFFFC0000
000FFFFC0000
000FFFFE0000
001FFFFE0000
001FFBFE0000
001FF3FF0000
001FF3FF0000
003FF1FF0000
003FE1FF8000
003FE1FF8000
007FE0FF8000
007FC0FF8000
007FC0FFC000
00FFC0FFC000
00FFC07FC000
00FF807FE000
01FF807FE000
01FF803FE000
01FF003FF000
01FF003FF000
03FF001FF000
03FE001FF800
03FE001FF800
07FE000FF800
07FFFFFFF800
07FFFFFFFC00
0FFFFFFFFC00
0FFFFFFFFC00
0FFFFFFFFE00
1FFFFFFFFE00
1FFFFFFFFE00
1FFFFFFFFF00
1FFFFFFFFF00
3FF00001FF00
3FE00001FF80
3FE00001FF80
7FE00000FF80
7FE00000FF80
7FC00000FFC0
FFC00000FFC0
FFC000007FC0
FF8000007FE0
FF8000007FE0
ENDCHAR
STARTCHAR 00C4
ENCODING 196
SWIDTH 675 0
DWIDTH 46 0
BBX 43 62 2 0
BITMAP
003FC0FF8000
003FC0FF8000
003FC0FF8000
003FC0FF8000
003FC0FF8000
003FC0FF8000
003FC0FF8000
003FC0FF8000
000000000000
000000000000
000000000000
000000000000
000000000000
0003FFF00000
0003FFF80000
0003FFF80000
0007FFF80000
0007FFFC0000
0007FFFC0000
000FFFFC0000
000FFFFC0000
000FFFFE0000
001FFFFE0000
001FFBFE0000
001FF3FF0000
001FF3FF0000
003FF1FF0000
003FE1FF8000
003FE1FF8000
007FE0FF8000
007FC0FF8000
007FC0FFC000
00FFC0FFC000
00FFC07FC000
00FF807FE000
01FF807FE000
01FF803FE000
01FF003FF000
01FF003FF000
03FF001FF000
03FE001FF800
03FE001FF800
07FE000FF800
07FFFFFFF800
07FFFFFFFC00
0FFFFFFFFC00
0FFFFFFFFC00
0FFFFFFFFE00
1FFFFFFFFE00
1FFFFFFFFE00
1FFFFFFFFF00
1FFFFFFFFF00
3FF00001FF00
3FE00001FF80
3FE00001FF80
7FE00000FF80
7FE00000FF80
7FC00000FFC0
FFC00000FFC0
FFC000007FC0
FF8000007FE0
FF8000007FE0
ENDCHAR
STARTCHAR 00C5
ENCODING 197
SWIDTH 675 0
DWIDTH 46 0
BBX 43 71 2 0
BITMAP
00003F000000
0000FFC00000
0001FFF00000
0003FFF00000
0007FFF80000
0007FFFC0000
000FE0FC0000
000FC07C0000
000FC07C0000
000FC07C0000
000FC07C0000
000FC0FC0000
0007E1FC0000
0007FFF80000
0003FFF80000
0001FFF00000
0000FFE00000
00007F800000
000000000000
000000000000
000000000000
000000000000
0003FFF00000
0003FFF80000
0003FFF80000
0007FFF80000
0007FFFC0000
0007FFFC0000
000FFFFC0000
000FFFFC0000
000FFFFE0000
001FFFFE0000
001FFBFE0000
001FF3FF0000
001FF3FF0000
003FF1FF0000
003FE1FF8000
003FE1FF8000
007FE0FF8000
007FC0FF8000
007FC0FFC000
00FFC0FFC000
00FFC07FC000
00FF807FE000
01FF807FE000
01FF803FE000
01FF003FF000
01FF003FF000
03FF001FF000
03FE001FF800
03FE001FF800
07FE000FF800
07FFFFFFF800
07FFFFFFFC00
0FFFFFFFFC00
0FFFFFFFFC00
0FFFFFFFFE00
1FFFFFFFFE00
1FFFFFFFFE00
1FFFFFFFFF00
1FFFFFFFFF00
3FF00001FF00
3FE00001FF80
3FE00001FF80
7FE00000FF80
7FE00000FF80
7FC00000FFC0
FFC00000FFC0
FFC000007FC0
FF8000007FE0
FF8000007FE0
ENDCHAR
STARTCHAR 00C6
ENCODING 198
SWIDTH 940 0
DWIDTH 64 0
BBX 59 49 2 0
BITMAP
0003FFFFFFFFFFE0
0003FFFFFFFFFFE0
0003FFFFFFFFFFE0
0007FFFFFFFFFFE0
0007FFFFFFFFFFE0
0007FFFFFFFFFFE0
000FFFFFFFFFFFE0
000FFFFFFFFFFFE0
000FFFFFFFFFFFE0
001FF81FF0000000
001FF81FF0000000
001FF01FF0000000
001FF01FF0000000
003FF01FF0000000
003FE01FF0000000
003FE01FF0000000
007FE01FF0000000
007FC01FF0000000
007FC01FF0000000
00FFC01FFFFFFE00
00FFC01FFFFFFE00
00FF801FFFFFFE00
01FF801FFFFFFE00
01FF801FFFFFFE00
01FF001FFFFFFE00
01FF001FFFFFFE00
03FF001FFFFFFE00
03FE001FFFFFFE00
03FE001FF0000000
07FE001FF0000000
07FFFFFFF0000000
07FFFFFFF0000000
0FFFFFFFF0000000
0FFFFFFFF0000000
0FFFFFFFF0000000
1FFFFFFFF0000000
1FFFFFFFF0000000
1FFFFFFFF0000000
1FFFFFFFF0000000
3FF0001FF0000000
3FE0001FFFFFFFE0
3FE0001FFFFFFFE0
7FE0001FFFFFFFE0
7FE0001FFFFFFFE0
7FC0001FFFFFFFE0
FFC0001FFFFFFFE0
FFC0001FFFFFFFE0
FF80001FFFFFFFE0
FF80001FFFFFFFE0
ENDCHAR
STARTCHAR 00C7
ENCODING 199
SWIDTH 749 0
DWIDTH 51 0
BBX 46 66 2 -16
BITMAP
00003FF80000
0001FFFF8000
000FFFFFE000
001FFFFFF800
007FFFFFFC00
00FFFFFFFF00
01FFFFFFFF80
03FFFFFFFFC0
07FFFFFFFFC0
0FFFE007FFE0
0FFF8001FFF0
1FFE0000FFF0
1FFC00003FF8
3FF800003FF8
3FF000001FFC
3FF000000FFC
7FE000000FE0
7FE000000E00
7FE000000000
7FC000000000
FFC000000000
FFC000000000
FFC000000000
FFC000000000
FFC000000000
FFC000000000
FFC000000000
FFC000000000
FFC000000000
FFC000000000
FFC000000000
FFC000000000
7FE000000000
7FE000000600
7FE000000FC0
7FF000000FFC
3FF000001FFC
3FF800003FF8
1FFC00003FF8
1FFE00007FF0
0FFF0001FFF0
0FFFC007FFE0
07FFFFFFFFC0
03FFFFFFFFC0
01FFFFFFFF80
00FFFFFFFF00
007FFFFFFE00
003FFFFFF800
000FFFFFE000
0003FFFF8000
00003FFC0000
000007E00000
000007C00000
00000FF00000
00000FF80000
00000FFC0000
000003FC0000
000000FC0000
000000FC0000
000000FC0000
00000FFC0000
00001FFC0000
00001FF80000
00001FF80000
00003FF00000
00001FC00000
ENDCHAR
STARTCHAR 00C8
ENCODING 200
SWIDTH 587 0
DWIDTH 40 0
BBX 32 67 5 0
BITMAP
00FC0000
00FE0000
00FE0000
007F0000
007F0000
003F8000
003F8000
001F8000
001FC000
001FC000
000FE000
000FE000
0007F000
00000000
00000000
00000000
00000000
00000000
FFFFFFFF
FFFFFFFF
FFFFFFFF
FFFFFFFF
FFFFFFFF
FFFFFFFF
FFFFFFFF
FFFFFFFF
FFFFFFFF
FF800000
FF800000
FF800000
FF800000
FF800000
FF800000
FF800000
FF800000
FF800000
FF800000
FFFFFFF0
FFFFFFF0
FFFFFFF0
FFFFFFF0
FFFFFFF0
FFFFFFF0
FFFFFFF0
FFFFFFF0
FFFFFFF0
FF800000
FF800000
FF800000
FF800000
FF800000
FF800000
FF800000
FF800000
FF800000
FF800000
FF800000
FF800000
FFFFFFFF
FFFFFFFF
FFFFFFFF
FFFFFFFF
FFFFFFFF
FFFFFFFF
FFFFFFFF
FFFFFFFF
FFFFFFFF
ENDCHAR
STARTCHAR 00C9
ENCODING 201
SWIDTH 587 0
DWIDTH 40 0
BBX 32 67 5 0
BITMAP
00001F80
00003F80
00003F80
00007F00
00007F00
0000FE00
0000FE00
0000FC00
0001FC00
0001FC00
0003F800
0003F800
0007F000
00000000
00000000
00000000
00000000
00000000
FFFFFFFF
FFFFFFFF
FFFFFFFF
FFFFFFFF
FFFFFFFF
FFFFFFFF
FFFFFFFF
FFFFFFFF
FFFFFFFF
FF800000
FF800000
FF800000
FF800000
FF800000
FF800000
FF800000
FF800000
FF800000
FF800000
FFFFFFF0
FFFFFFF0
FFFFFFF0
FFFFFFF0
FFFFFFF0
FFFFFFF0
FFFFFFF0
FFFFFFF0
FFFFFFF0
FF800000
FF800000
FF800000
FF800000
FF800000
FF800000
FF800000
FF800000
FF800000
FF800000
FF800000
FF800000
FFFFFFFF
FFFFFFFF
FFFFFFFF
FFFFFFFF
FFFFFFFF
FFFFFFFF
FFFFFFFF
FFFFFFFF
FFFFFFFF
ENDCHAR
STARTCHAR 00CA
ENCODING 202
SWIDTH 587 0
DWIDTH 40 0
BBX 32 65 5 0
BITMAP
001FF000
003FF800
007FF800
00FFFC00
01FFFE00
03FEFF00
03FC7F80
07F87FC0
0FF03FE0
1FE01FF0
3FE00FF0
00000000
00000000
00000000
00000000
00000000
FFFFFFFF
FFFFFFFF
FFFFFFFF
FFFFFFFF
FFFFFFFF
FFFFFFFF
FFFFFFFF
FFFFFFFF
FFFFFFFF
FF800000
FF800000
FF800000
FF800000
FF800000
FF800000
FF800000
FF800000
FF800000
FF800000
FFFFFFF0
FFFFFFF0
FFFFFFF0
FFFFFFF0
FFFFFFF0
FFFFFFF0
FFFFFFF0
FFFFFFF0
FFFFFFF0
FF800000
FF800000
FF800000
FF800000
FF800000
FF800000
FF800000
FF800000
FF800000
FF800000
FF800000
FF800000
FFFFFFFF
FFFFFFFF
FFFFFFFF
FFFFFFFF
FFFFFFFF
FFFFFFFF
FFFFFFFF
FFFFFFFF
FFFFFFFF
ENDCHAR
STARTCHAR 00CB
ENCODING 203
SWIDTH 587 0
DWIDTH 40 0
BBX 32 62 5 0
BITMAP
0FF81FE0
0FF81FE0
0FF81FE0
0FF81FE0
0FF81FE0
0FF81FE0
0FF81FE0
0FF81FE0
00000000
00000000
00000000
00000000
00000000
FFFFFFFF
FFFFFFFF
FFFFFFFF
FFFFFFFF
FFFFFFFF
FFFFFFFF
FFFFFFFF
FFFFFFFF
FFFFFFFF
FF800000
FF800000
FF800000
FF800000
FF800000
FF800000
FF800000
FF800000
FF800000
FF800000
FFFFFFF0
FFFFFFF0
FFFFFFF0
FFFFFFF0
FFFFFFF0
FFFFFFF0
FFFFFFF0
FFFFFFF0
FFFFFFF0
FF800000
FF800000
FF800000
FF800000
FF800000
FF800000
FF800000
FF800000
FF800000
FF800000
FF800000
FF800000
FFFFFFFF
FFFFFFFF
FFFFFFFF
FFFFFFFF
FFFFFFFF
FFFFFFFF
FFFFFFFF
FFFFFFFF
FFFFFFFF
ENDCHAR
STARTCHAR 00CC
ENCODING 204
SWIDTH 293 0
DWIDTH 20 0
BBX 14 67 1 0
BITMAP
FE00
7E00
7F00
7F00
3F80
3F80
1FC0
1FC0
0FC0
0FE0
0FE0
07F0
07F0
0000
0000
0000
0000
0000
0FFC
0FFC
0FFC
0FFC
0FFC
0FFC
0FFC
0FFC
0FFC
0FFC
0FFC
0FFC
0FFC
0FFC
0FFC
0FFC
0FFC
0FFC
0FFC
0FFC
0FFC
0FFC
0FFC
0FFC
0FFC
0FFC
0FFC
0FFC
0FFC
0FFC
0FFC
0FFC
0FFC
0FFC
0FFC
0FFC
0FFC
0FFC
0FFC
0FFC
0FFC
0FFC
0FFC
0FFC
0FFC
0FFC
0FFC
0FFC
0FFC
ENDCHAR
STARTCHAR 00CD
ENCODING 205
SWIDTH 293 0
DWIDTH 20 0
BBX 14 67 5 0
BITMAP
01FC
01FC
03F8
03F8
07F0
07F0
07E0
0FE0
0FE0
1FC0
1FC0
3F80
3F80
0000
0000
0000
0000
0000
FFC0
FFC0
FFC0
FFC0
FFC0
FFC0
FFC0
FFC0
FFC0
FFC0
FFC0
FFC0
FFC0
FFC0
FFC0
FFC0
FFC0
FFC0
FFC0
FFC0
FFC0
FFC0
FFC0
FFC0
FFC0
FFC0
FFC0
FFC0
FFC0
FFC0
FFC0
FFC0
FFC0
FFC0
FFC0
FFC0
FFC0
FFC0
FFC0
FFC0
FFC0
FFC0
FFC0
FFC0
FFC0
FFC0
FFC0
FFC0
FFC0
ENDCHAR
STARTCHAR 00CE
ENCODING 206
SWIDTH 293 0
DWIDTH 20 0
BBX 26 65 -3 0
BITMAP
00FF8000
00FFC000
01FFE000
03FFF000
07FFF800
0FF7FC00
1FF3FE00
3FE1FE00
7FC0FF00
7F807F80
FF003FC0
00000000
00000000
00000000
00000000
00000000
00FFC000
00FFC000
00FFC000
00FFC000
00FFC000
00FFC000
00FFC000
00FFC000
00FFC000
00FFC000
00FFC000
00FFC000
00FFC000
00FFC000
00FFC000
00FFC000
00FFC000
00FFC000
00FFC000
00FFC000
00FFC000
00FFC000
00FFC000
00FFC000
00FFC000
00FFC000
00FFC000
00FFC000
00FFC000
00FFC000
00FFC000
00FFC000
00FFC000
00FFC000
00FFC000
00FFC000
00FFC000
00FFC000
00FFC000
00FFC000
00FFC000
00FFC000
00FFC000
00FFC000
00FFC000
00FFC000
00FFC000
00FFC000
00FFC000
ENDCHAR
STARTCHAR 00CF
ENCODING 207
SWIDTH 293 0
DWIDTH 20 0
BBX 22 62 -1 0
BITMAP
FF03FC
FF03FC
FF03FC
FF03FC
FF03FC
FF03FC
FF03FC
FF03FC
000000
000000
000000
000000
000000
03FF00
03FF00
03FF00
03FF00
03FF00
03FF00
03FF00
03FF00
03FF00
03FF00
03FF00
03FF00
03FF00
03FF00
03FF00
03FF00
03FF00
03FF00
03FF00
03FF00
03FF00
03FF00
03FF00
03FF00
03FF00
03FF00
03FF00
03FF00
03FF00
03FF00
03FF00
03FF00
03FF00
03FF00
03FF00
03FF00
03FF00
03FF00
03FF00
03FF00
03FF00
03FF00
03FF00
03FF00
03FF00
03FF00
03FF00
03FF00
03FF00
ENDCHAR
STARTCHAR 00D0
ENCODING 208
SWIDTH 720 0
DWIDTH 49 0
BBX 44 49 1 0
BITMAP
0FFFFFE00000
0FFFFFFE0000
0FFFFFFF8000
0FFFFFFFC000
0FFFFFFFF000
0FFFFFFFF800
0FFFFFFFFC00
0FFFFFFFFE00
0FFFFFFFFF00
0FF8001FFF00
0FF80007FF80
0FF80003FF80
0FF80001FFC0
0FF80001FFC0
0FF80000FFE0
0FF800007FE0
0FF800007FE0
0FF800007FE0
0FF800003FF0
0FF800003FF0
0FF800003FF0
FFFFFE003FF0
FFFFFE003FF0
FFFFFE003FF0
FFFFFE003FF0
FFFFFE003FF0
FFFFFE003FF0
FFFFFE003FF0
0FF800003FF0
0FF800003FF0
0FF800003FF0
0FF800007FE0
0FF800007FE0
0FF800007FE0
0FF80000FFE0
0FF80001FFC0
0FF80001FFC0
0FF80003FF80
0FF80007FF80
0FF8001FFF00
0FFFFFFFFF00
0FFFFFFFFE00
0FFFFFFFFC00
0FFFFFFFF800
0FFFFFFFF000
0FFFFFFFE000
0FFFFFFF8000
0FFFFFFE0000
0FFFFFE00000
ENDCHAR
STARTCHAR 00D1
ENCODING 209
SWIDTH 734 0
DWIDTH 50 0
BBX 40 66 5 0
BITMAP
000F800000
003FE01F80
007FF81F80
007FFC1F80
00FFFF1F80
00FFFFFF80
00FFFFFF80
00FC3FFF80
00FC1FFF00
00FC07FF00
00FC03FC00
0000002000
0000000000
0000000000
0000000000
0000000000
0000000000
FF800003FF
FFC00003FF
FFE00003FF
FFE00003FF
FFF00003FF
FFF80003FF
FFF80003FF
FFFC0003FF
FFFE0003FF
FFFE0003FF
FFFF0003FF
FFFF8003FF
FFFF8003FF
FFFFC003FF
FFFFE003FF
FFFFE003FF
FFFFF003FF
FFBFF803FF
FF9FF803FF
FF9FFC03FF
FF8FFE03FF
FF8FFE03FF
FF87FF03FF
FF83FF03FF
FF83FF83FF
FF81FFC3FF
FF80FFC3FF
FF80FFE3FF
FF807FF3FF
FF803FF3FF
FF803FFBFF
FF801FFFFF
FF800FFFFF
FF800FFFFF
FF8007FFFF
FF8003FFFF
FF8003FFFF
FF8001FFFF
FF8000FFFF
FF8000FFFF
FF80007FFF
FF80003FFF
FF80003FFF
FF80001FFF
FF80000FFF
FF80000FFF
FF800007FF
FF800007FF
FF800003FF
ENDCHAR
STARTCHAR 00D2
ENCODING 210
SWIDTH 764 0
DWIDTH 52 0
BBX 48 68 2 -1
BITMAP
0003F8000000
0001F8000000
0001FC000000
0001FC000000
0000FE000000
0000FE000000
00007F000000
00007F000000
00007F000000
00003F800000
00003F800000
00001FC00000
00001FC00000
000000000000
000000000000
000000000000
000000000000
00003FF80000
0001FFFF8000
000FFFFFE000
001FFFFFF800
007FFFFFFC00
00FFFFFFFF00
01FFFFFFFF80
03FFFFFFFFC0
07FFFFFFFFC0
0FFFE007FFE0
0FFF0001FFF0
1FFE0000FFF0
1FFC00007FF8
3FF800003FF8
3FF000001FFC
3FF000000FFC
7FE000000FFC
7FE000000FFE
7FE0000007FE
7FC0000007FE
FFC0000007FE
FFC0000007FE
FFC0000003FE
FFC0000003FE
FFC0000003FF
FFC0000003FF
FFC0000003FF
FFC0000003FE
FFC0000003FE
FFC0000007FE
FFC0000007FE
7FC0000007FE
7FE0000007FE
7FE0000007FE
7FE000000FFC
3FF000000FFC
3FF000001FFC
3FF800003FF8
1FFC00003FF8
1FFE00007FF0
0FFF8001FFF0
0FFFE007FFE0
07FFFFFFFFC0
03FFFFFFFFC0
01FFFFFFFF80
00FFFFFFFF00
007FFFFFFC00
001FFFFFF800
000FFFFFE000
0001FFFF8000
00003FF80000
ENDCHAR
STARTCHAR 00D3
ENCODING 211
SWIDTH 764 0
DWIDTH 52 0
BBX 48 68 2 -1
BITMAP
0000003F8000
0000007F0000
0000007F0000
0000007E0000
000000FE0000
000000FE0000
000001FC0000
000001FC0000
000003F80000
000003F80000
000003F80000
000007F00000
000007F00000
000000000000
000000000000
000000000000
000000000000
00003FF80000
0001FFFF8000
000FFFFFE000
001FFFFFF800
007FFFFFFC00
00FFFFFFFF00
01FFFFFFFF80
03FFFFFFFFC0
07FFFFFFFFC0
0FFFE007FFE0
0FFF0001FFF0
1FFE0000FFF0
1FFC00007FF8
3FF800003FF8
3FF000001FFC
3FF000000FFC
7FE000000FFC
7FE000000FFE
7FE0000007FE
7FC0000007FE
FFC0000007FE
FFC0000007FE
FFC0000003FE
FFC0000003FE
FFC0000003FF
FFC0000003FF
FFC0000003FF
FFC0000003FE
FFC0000003FE
FFC0000007FE
FFC0000007FE
7FC0000007FE
7FE0000007FE
7FE0000007FE
7FE000000FFC
3FF000000FFC
3FF000001FFC
3FF800003FF8
1FFC00003FF8
1FFE00007FF0
0FFF8001FFF0
0FFFE007FFE0
07FFFFFFFFC0
03FFFFFFFFC0
01FFFFFFFF80
00FFFFFFFF00
007FFFFFFC00
001FFFFFF800
000FFFFFE000
0001FFFF8000
00003FF80000
ENDCHAR
STARTCHAR 00D4
ENCODING 212
SWIDTH 764 0
DWIDTH 52 0
BBX 48 66 2 -1
BITMAP
00001FF00000
00003FF80000
00007FFC0000
00007FFE0000
0000FFFF0000
0001FEFF0000
0003FC7F8000
0007F83FC000
000FF81FE000
001FF01FF000
003FE00FF800
000000000000
000000000000
000000000000
000000000000
00003FF80000
0001FFFF8000
000FFFFFE000
001FFFFFF800
007FFFFFFC00
00FFFFFFFF00
01FFFFFFFF80
03FFFFFFFFC0
07FFFFFFFFC0
0FFFE007FFE0
0FFF0001FFF0
1FFE0000FFF0
1FFC00007FF8
3FF800003FF8
3FF000001FFC
3FF000000FFC
7FE000000FFC
7FE000000FFE
7FE0000007FE
7FC0000007FE
FFC0000007FE
FFC0000007FE
FFC0000003FE
FFC0000003FE
FFC0000003FF
FFC0000003FF
FFC0000003FF
FFC0000003FE
FFC0000003FE
FFC0000007FE
FFC0000007FE
7FC0000007FE
7FE0000007FE
7FE0000007FE
7FE000000FFC
3FF000000FFC
3FF000001FFC
3FF800003FF8
1FFC00003FF8
1FFE00007FF0
0FFF8001FFF0
0FFFE007FFE0
07FFFFFFFFC0
03FFFFFFFFC0
01FFFFFFFF80
00FFFFFFFF00
007FFFFFFC00
001FFFFFF800
000FFFFFE000
0001FFFF8000
00003FF80000
ENDCHAR
STARTCHAR 00D5
ENCODING 213
SWIDTH 764 0
DWIDTH 52 0
BBX 48 67 2 -1
BITMAP
0001F8000000
0003FE01F000
0007FF01F800
000FFFC1F800
000FFFE3F800
000FFFFFF800
000FFFFFF000
000FC3FFF000
000FC1FFF000
000FC07FE000
000FC03FC000
000000060000
000000000000
000000000000
000000000000
000000000000
00003FF80000
0001FFFF8000
000FFFFFE000
001FFFFFF800
007FFFFFFC00
00FFFFFFFF00
01FFFFFFFF80
03FFFFFFFFC0
07FFFFFFFFC0
0FFFE007FFE0
0FFF0001FFF0
1FFE0000FFF0
1FFC00007FF8
3FF800003FF8
3FF000001FFC
3FF000000FFC
7FE000000FFC
7FE000000FFE
7FE0000007FE
7FC0000007FE
FFC0000007FE
FFC0000007FE
FFC0000003FE
FFC0000003FE
FFC0000003FF
FFC0000003FF
FFC0000003FF
FFC0000003FE
FFC0000003FE
FFC0000007FE
FFC0000007FE
7FC0000007FE
7FE0000007FE
7FE0000007FE
7FE000000FFC
3FF000000FFC
3FF000001FFC
3FF800003FF8
1FFC00003FF8
1FFE00007FF0
0FFF8001FFF0
0FFFE007FFE0
07FFFFFFFFC0
03FFFFFFFFC0
01FFFFFFFF80
00FFFFFFFF00
007FFFFFFC00
001FFFFFF800
000FFFFFE000
0001FFFF8000
00003FF80000
ENDCHAR
STARTCHAR 00D6
ENCODING 214
SWIDTH 764 0
DWIDTH 52 0
BBX 48 63 2 -1
BITMAP
000FF81FE000
000FF81FE000
000FF81FE000
000FF81FE000
000FF81FE000
000FF81FE000
000FF81FE000
000FF81FE000
000000000000
000000000000
000000000000
000000000000
00003FF80000
0001FFFF8000
000FFFFFE000
001FFFFFF800
007FFFFFFC00
00FFFFFFFF00
01FFFFFFFF80
03FFFFFFFFC0
07FFFFFFFFC0
0FFFE007FFE0
0FFF0001FFF0
1FFE0000FFF0
1FFC00007FF8
3FF800003FF8
3FF000001FFC
3FF000000FFC
7FE000000FFC
7FE000000FFE
7FE0000007FE
7FC0000007FE
FFC0000007FE
FFC0000007FE
FFC0000003FE
FFC0000003FE
FFC0000003FF
FFC0000003FF
FFC0000003FF
FFC0000003FE
FFC0000003FE
FFC0000007FE
FFC0000007FE
7FC0000007FE
7FE0000007FE
7FE0000007FE
7FE000000FFC
3FF000000FFC
3FF000001FFC
3FF800003FF8
1FFC00003FF8
1FFE00007FF0
0FFF8001FFF0
0FFFE007FFE0
07FFFFFFFFC0
03FFFFFFFFC0
01FFFFFFFF80
00FFFFFFFF00
007FFFFFFC00
001FFFFFF800
000FFFFFE000
0001FFFF8000
00003FF80000
ENDCHAR
STARTCHAR 00D7
ENCODING 215
SWIDTH 514 0
DWIDTH 35 0
BBX 27 26 4 11
BITMAP
04000400
0E000E00
1F001F00
3F803F80
7FC07FC0
7FE0FFC0
3FF1FF80
1FFBFF00
0FFFFE00
07FFFC00
03FFF800
01FFF000
00FFE000
00FFE000
01FFF000
03FFF800
07FFFC00
0FFFFE00
1FFBFF00
3FF1FF80
7FE0FFC0
FFC07FE0
7F803FC0
3F001F80
1E000F00
0C000600
ENDCHAR
STARTCHAR 00D8
ENCODING 216
SWIDTH 764 0
DWIDTH 52 0
BBX 48 51 2 -1
BITMAP
00003FF80040
0001FFFF80E0
000FFFFFE1F0
001FFFFFFBF8
007FFFFFFFFC
00FFFFFFFFFE
01FFFFFFFFFE
03FFFFFFFFFC
07FFFFFFFFF8
0FFFE007FFF0
0FFF0001FFF0
1FFE0001FFF0
1FFC0003FFF8
3FF80007FFF8
3FF00007FFFC
3FF0000FFFFC
7FE0001FFFFC
7FE0003FFFFE
7FE0007FF7FE
7FC000FFE7FE
FFC001FFC7FE
FFC003FF87FE
FFC007FF83FE
FFC007FF03FE
FFC00FFE03FF
FFC01FFC03FF
FFC03FF803FF
FFC07FF003FE
FFC0FFE003FE
FFC1FFC007FE
FFC3FF8007FE
FFE7FF8007FE
7FE7FF0007FE
7FEFFE0007FE
7FFFFC000FFC
7FFFF8000FFC
3FFFF0001FFC
3FFFE0003FF8
1FFFC0003FF8
1FFFC0007FF0
0FFF8001FFF0
0FFFE007FFE0
1FFFFFFFFFC0
1FFFFFFFFFC0
3FFFFFFFFF80
3FFFFFFFFF00
1FFFFFFFFC00
0FFFFFFFF800
07CFFFFFE000
0381FFFF8000
01003FF80000
ENDCHAR
STARTCHAR 00D9
ENCODING 217
SWIDTH 720 0
DWIDTH 49 0
BBX 40 68 5 -1
BITMAP
000FC00000
000FE00000
000FE00000
0007F00000
0007F00000
0003F80000
0003F80000
0001F80000
0001FC0000
0001FC0000
0000FE0000
0000FE0000
00007F0000
0000000000
0000000000
0000000000
0000000000
0000000000
FF800003FF
FF800003FF
FF800003FF
FF800003FF
FF800003FF
FF800003FF
FF800003FF
FF800003FF
FF800003FF
FF800003FF
FF800003FF
FF800003FF
FF800003FF
FF800003FF
FF800003FF
FF800003FF
FF800003FF
FF800003FF
FF800003FF
FF800003FF
FF800003FF
FF800003FF
FF800003FF
FF800003FF
FF800003FF
FF800003FF
FF800003FF
FF800003FF
FF800003FF
FF800003FF
FF800003FF
FF800003FF
FF800003FF
FF800003FE
FFC00003FE
FFC00007FE
FFE00007FE
7FE0000FFE
7FF0001FFC
3FFC003FFC
3FFF00FFF8
1FFFFFFFF8
1FFFFFFFF0
0FFFFFFFE0
07FFFFFFC0
03FFFFFF80
01FFFFFF00
007FFFFC00
001FFFF000
0003FF8000
ENDCHAR
STARTCHAR 00DA
ENCODING 218
SWIDTH 720 0
DWIDTH 49 0
BBX 40 68 5 -1
BITMAP
000007F000
000007F000
000007F000
00000FE000
00000FE000
00001FC000
00001FC000
00003F8000
00003F8000
00003F8000
00007F0000
00007F0000
0000FE0000
0000000000
0000000000
0000000000
0000000000
0000000000
FF800003FF
FF800003FF
FF800003FF
FF800003FF
FF800003FF
FF800003FF
FF800003FF
FF800003FF
FF800003FF
FF800003FF
FF800003FF
FF800003FF
FF800003FF
FF800003FF
FF800003FF
FF800003FF
FF800003FF
FF800003FF
FF800003FF
FF800003FF
FF800003FF
FF800003FF
FF800003FF
FF800003FF
FF800003FF
FF800003FF
FF800003FF
FF800003FF
FF800003FF
FF800003FF
FF800003FF
FF800003FF
FF800003FF
FF800003FE
FFC00003FE
FFC00007FE
FFE00007FE
7FE0000FFE
7FF0001FFC
3FFC003FFC
3FFF00FFF8
1FFFFFFFF8
1FFFFFFFF0
0FFFFFFFE0
07FFFFFFC0
03FFFFFF80
01FFFFFF00
007FFFFC00
001FFFF000
0003FF8000
ENDCHAR
STARTCHAR 00DB
ENCODING 219
SWIDTH 720 0
DWIDTH 49 0
BBX 40 66 5 -1
BITMAP
0001FF0000
0003FF8000
0007FFC000
0007FFE000
000FFFF000
001FEFF000
003FC7F800
007F83FC00
00FF81FE00
01FF01FF00
03FE00FF80
0000000000
0000000000
0000000000
0000000000
0000000000
FF800003FF
FF800003FF
FF800003FF
FF800003FF
FF800003FF
FF800003FF
FF800003FF
FF800003FF
FF800003FF
FF800003FF
FF800003FF
FF800003FF
FF800003FF
FF800003FF
FF800003FF
FF800003FF
FF800003FF
FF800003FF
FF800003FF
FF800003FF
FF800003FF
FF800003FF
FF800003FF
FF800003FF
FF800003FF
FF800003FF
FF800003FF
FF800003FF
FF800003FF
FF800003FF
FF800003FF
FF800003FF
FF800003FF
FF800003FE
FFC00003FE
FFC00007FE
FFE00007FE
7FE0000FFE
7FF0001FFC
3FFC003FFC
3FFF00FFF8
1FFFFFFFF8
1FFFFFFFF0
0FFFFFFFE0
07FFFFFFC0
03FFFFFF80
01FFFFFF00
007FFFFC00
001FFFF000
0003FF8000
ENDCHAR
STARTCHAR 00DC
ENCODING 220
SWIDTH 720 0
DWIDTH 49 0
BBX 40 63 5 -1
BITMAP
00FF81FE00
00FF81FE00
00FF81FE00
00FF81FE00
00FF81FE00
00FF81FE00
00FF81FE00
00FF81FE00
0000000000
0000000000
0000000000
0000000000
0000000000
FF800003FF
FF800003FF
FF800003FF
FF800003FF
FF800003FF
FF800003FF
FF800003FF
FF800003FF
FF800003FF
FF800003FF
FF800003FF
FF800003FF
FF800003FF
FF800003FF
FF800003FF
FF800003FF
FF800003FF
FF800003FF
FF800003FF
FF800003FF
FF800003FF
FF800003FF
FF800003FF
FF800003FF
FF800003FF
FF800003FF
FF800003FF
FF800003FF
FF800003FF
FF800003FF
FF800003FF
FF800003FF
FF800003FF
FF800003FE
FFC00003FE
FFC00007FE
FFE00007FE
7FE0000FFE
7FF0001FFC
3FFC003FFC
3FFF00FFF8
1FFFFFFFF8
1FFFFFFFF0
0FFFFFFFE0
07FFFFFFC0
03FFFFFF80
01FFFFFF00
007FFFFC00
001FFFF000
0003FF8000
ENDCHAR
STARTCHAR 00DD
ENCODING 221
SWIDTH 631 0
DWIDTH 43 0
BBX 43 67 0 0
BITMAP
000001FC0000
000001FC0000
000003F80000
000003F80000
000003F00000
000007F00000
000007F00000
00000FE00000
00000FE00000
00001FC00000
00001FC00000
00001F800000
00003F800000
000000000000
000000000000
000000000000
000000000000
000000000000
FFE00000FFE0
7FF00001FFC0
7FF00001FF80
3FF80003FF80
1FF80007FF00
1FFC0007FF00
0FFE000FFE00
0FFE000FFE00
07FF001FFC00
07FF001FF800
03FF803FF800
01FF807FF000
01FFC07FF000
00FFE0FFE000
00FFE0FFE000
007FF1FFC000
007FF1FF8000
003FFBFF8000
001FFFFF0000
001FFFFF0000
000FFFFE0000
000FFFFC0000
0007FFFC0000
0003FFF80000
0003FFF80000
0001FFF00000
0001FFF00000
0000FFE00000
0000FFC00000
00007FC00000
00007FC00000
00007FC00000
00007FC00000
00007FC00000
00007FC00000
00007FC00000
00007FC00000
00007FC00000
00007FC00000
00007FC00000
00007FC00000
00007FC00000
00007FC00000
00007FC00000
00007FC00000
00007FC00000
00007FC00000
00007FC00000
00007FC00000
ENDCHAR
STARTCHAR 00DE
ENCODING 222
SWIDTH 646 0
DWIDTH 44 0
BBX 37 49 5 0
BITMAP
FF80000000
FF80000000
FF80000000
FF80000000
FF80000000
FF80000000
FF80000000
FF80000000
FFFFFE0000
FFFFFFC000
FFFFFFF800
FFFFFFFC00
FFFFFFFE00
FFFFFFFF00
FFFFFFFF80
FFFFFFFFC0
FFFFFFFFC0
FF8003FFE0
FF8000FFE0
FF80007FF0
FF80003FF0
FF80001FF0
FF80001FF0
FF80001FF8
FF80001FF8
FF80001FF8
FF80001FF8
FF80001FF0
FF80003FF0
FF80007FF0
FF8000FFE0
FF8003FFE0
FFFFFFFFC0
FFFFFFFFC0
FFFFFFFF80
FFFFFFFF00
FFFFFFFE00
FFFFFFFC00
FFFFFFF000
FFFFFFC000
FFFFFC0000
FF80000000
FF80000000
FF80000000
FF80000000
FF80000000
FF80000000
FF80000000
FF80000000
ENDCHAR
STARTCHAR 00DF
ENCODING 223
SWIDTH 646 0
DWIDTH 44 0
BBX 35 51 5 -1
BITMAP
001FE00000
01FFFC0000
03FFFF0000
0FFFFFC000
1FFFFFE000
3FFFFFF000
3FFFFFF800
7FFFFFF800
7FFFFFFC00
FFF01FFC00
FFE00FFE00
FFC007FE00
FF8007FE00
FF8003FE00
FF8003FE00
FF8003FE00
FF8007FE00
FF8007FE00
FF800FFC00
FF803FFC00
FF81FFF800
FF81FFF800
FF81FFF000
FF81FFF800
FF81FFFC00
FF81FFFE00
FF81FFFF00
FF81FFFF80
FF801FFF80
FF8003FFC0
FF8000FFC0
FF80007FC0
FF80007FE0
FF80007FE0
FF80003FE0
FF80003FE0
FF80007FE0
FF80007FE0
FF80007FE0
FF8000FFE0
FF8001FFC0
FF8407FFC0
FF87FFFFC0
FF87FFFF80
FF87FFFF80
FF87FFFF00
FF87FFFE00
FF87FFFC00
FF87FFF800
FF87FFE000
0003FF0000
ENDCHAR
STARTCHAR 00E0
ENCODING 224
SWIDTH 587 0
DWIDTH 40 0
BBX 33 56 3 -1
BITMAP
00FE000000
007F000000
007F000000
003F800000
003F800000
001F800000
001FC00000
001FC00000
000FE00000
000FE00000
0007F00000
0007F00000
0003F00000
0000000000
0000000000
0000000000
0000000000
000FFC0000
007FFF8000
01FFFFE000
07FFFFF800
0FFFFFFC00
1FFFFFFC00
1FFFFFFE00
3FFFFFFE00
3FFF7FFF00
7FF007FF00
3FE003FF00
07C001FF00
00C001FF80
000001FF80
00007FFF80
000FFFFF80
00FFFFFF80
03FFFFFF80
0FFFFFFF80
1FFFFFFF80
3FFFFFFF80
7FFFF9FF80
7FFF01FF80
FFF001FF80
FFE001FF80
FF8001FF80
FF8001FF80
FF8003FF80
FF8007FF80
FF800FFF80
FFC01FFF80
FFF0FFFF80
7FFFFFFF80
7FFFFFFF80
3FFFFFFF80
1FFFFEFF80
0FFFF8FF80
07FFF0FF80
00FF800000
ENDCHAR
STARTCHAR 00E1
ENCODING 225
SWIDTH 587 0
DWIDTH 40 0
BBX 33 56 3 -1
BITMAP
00001FC000
00001FC000
00001F8000
00003F8000
00003F8000
00007F0000
00007F0000
0000FE0000
0000FE0000
0000FC0000
0001FC0000
0001FC0000
0003F80000
0000000000
0000000000
0000000000
0000000000
000FFC0000
007FFF8000
01FFFFE000
07FFFFF800
0FFFFFFC00
1FFFFFFC00
1FFFFFFE00
3FFFFFFE00
3FFF7FFF00
7FF007FF00
3FE003FF00
07C001FF00
00C001FF80
000001FF80
00007FFF80
000FFFFF80
00FFFFFF80
03FFFFFF80
0FFFFFFF80
1FFFFFFF80
3FFFFFFF80
7FFFF9FF80
7FFF01FF80
FFF001FF80
FFE001FF80
FF8001FF80
FF8001FF80
FF8003FF80
FF8007FF80
FF800FFF80
FFC01FFF80
FFF0FFFF80
7FFFFFFF80
7FFFFFFF80
3FFFFFFF80
1FFFFEFF80
0FFFF8FF80
07FFF0FF80
00FF800000
ENDCHAR
STARTCHAR 00E2
ENCODING 226
SWIDTH 587 0
DWIDTH 40 0
BBX 33 54 3 -1
BITMAP
0007FC0000
000FFE0000
001FFE0000
003FFF0000
007FFF8000
00FFBFC000
00FF1FE000
01FE1FF000
03FC0FF800
07F807FC00
0FF803FC00
0000000000
0000000000
0000000000
0000000000
000FFC0000
007FFF8000
01FFFFE000
07FFFFF800
0FFFFFFC00
1FFFFFFC00
1FFFFFFE00
3FFFFFFE00
3FFF7FFF00
7FF007FF00
3FE003FF00
07C001FF00
00C001FF80
000001FF80
00007FFF80
000FFFFF80
00FFFFFF80
03FFFFFF80
0FFFFFFF80
1FFFFFFF80
3FFFFFFF80
7FFFF9FF80
7FFF01FF80
FFF001FF80
FFE001FF80
FF8001FF80
FF8001FF80
FF8003FF80
FF8007FF80
FF800FFF80
FFC01FFF80
FFF0FFFF80
7FFFFFFF80
7FFFFFFF80
3FFFFFFF80
1FFFFEFF80
0FFFF8FF80
07FFF0FF80
00FF800000
ENDCHAR
STARTCHAR 00E3
ENCODING 227
SWIDTH 587 0
DWIDTH 40 0
BBX 33 55 3 -1
BITMAP
007E000000
00FF80FC00
01FFC07C00
03FFF0FC00
03FFF8FE00
03FFFFFC00
03FFFFFC00
07F1FFFC00
03E07FFC00
03E03FF800
03F00FF000
0000018000
0000000000
0000000000
0000000000
0000000000
000FFC0000
007FFF8000
01FFFFE000
07FFFFF800
0FFFFFFC00
1FFFFFFC00
1FFFFFFE00
3FFFFFFE00
3FFF7FFF00
7FF007FF00
3FE003FF00
07C001FF00
00C001FF80
000001FF80
00007FFF80
000FFFFF80
00FFFFFF80
03FFFFFF80
0FFFFFFF80
1FFFFFFF80
3FFFFFFF80
7FFFF9FF80
7FFF01FF80
FFF001FF80
FFC001FF80
FF8001FF80
FF8001FF80
FF8003FF80
FF8007FF80
FF800FFF80
FFC01FFF80
FFF8FFFF80
7FFFFFFF80
7FFFFFFF80
3FFFFFFF80
1FFFFEFF80
0FFFF8FF80
07FFF0FF80
00FF800000
ENDCHAR
STARTCHAR 00E4
ENCODING 228
SWIDTH 587 0
DWIDTH 40 0
BBX 33 51 3 -1
BITMAP
03FC07F800
03FC07F800
03FC07F800
03FC07F800
03FC07F800
03FC07F800
03FC07F800
03FC07F800
0000000000
0000000000
0000000000
0000000000
000FFC0000
007FFF8000
01FFFFE000
07FFFFF800
0FFFFFFC00
1FFFFFFC00
1FFFFFFE00
3FFFFFFE00
3FFF7FFF00
7FF007FF00
3FE003FF00
07C001FF00
00C001FF80
000001FF80
00007FFF80
000FFFFF80
00FFFFFF80
03FFFFFF80
0FFFFFFF80
1FFFFFFF80
3FFFFFFF80
7FFFF9FF80
7FFF01FF80
FFF001FF80
FFE001FF80
FF8001FF80
FF8001FF80
FF8003FF80
FF8007FF80
FF800FFF80
FFC01FFF80
FFF0FFFF80
7FFFFFFF80
7FFFFFFF80
3FFFFFFF80
1FFFFEFF80
0FFFF8FF80
07FFF0FF80
00FF800000
ENDCHAR
STARTCHAR 00E5
ENCODING 229
SWIDTH 587 0
DWIDTH 40 0
BBX 33 60 3 -1
BITMAP
0003F00000
000FFC0000
001FFF0000
003FFF0000
007FFF8000
007FFFC000
00FE0FC000
00FC07C000
00FC07C000
00FC07C000
00FC07C000
00FC0FC000
007E1FC000
007FFF8000
003FFF8000
001FFF0000
000FFE0000
0007F80000
0000000000
0000000000
0000000000
000FFC0000
007FFF8000
01FFFFE000
07FFFFF800
0FFFFFFC00
1FFFFFFC00
1FFFFFFE00
3FFFFFFE00
3FFF7FFF00
7FF007FF00
3FE003FF00
07C001FF00
00C001FF80
000001FF80
00007FFF80
000FFFFF80
00FFFFFF80
03FFFFFF80
0FFFFFFF80
1FFFFFFF80
3FFFFFFF80
7FFFF9FF80
7FFF01FF80
FFF001FF80
FFE001FF80
FF8001FF80
FF8001FF80
FF8003FF80
FF8007FF80
FF800FFF80
FFC01FFF80
FFF0FFFF80
7FFFFFFF80
7FFFFFFF80
3FFFFFFF80
1FFFFEFF80
0FFFF8FF80
07FFF0FF80
00FF800000
ENDCHAR
STARTCHAR 00E6
ENCODING 230
SWIDTH 940 0
DWIDTH 64 0
BBX 58 39 3 -1
BITMAP
0007FC0007FC0000
003FFF803FFF8000
00FFFFE0FFFFC000
03FFFFF1FFFFF000
07FFFFFBFFFFF800
0FFFFFFFFFFFFC00
1FFFFFFFFFFFFC00
1FFFFFFFFFFFFE00
3FFF7FFFFC07FF00
7FF007FFF803FF00
7FE003FFE001FF00
07C001FFE000FF80
00C001FFC000FF80
000001FFC0007F80
000001FFC0007F80
00003FFFFFFFFFC0
000FFFFFFFFFFFC0
00FFFFFFFFFFFFC0
03FFFFFFFFFFFFC0
0FFFFFFFFFFFFFC0
1FFFFFFFFFFFFFC0
3FFFFDFFFFFFFFC0
7FFE01FF80000000
7FF001FFC0000000
FFC001FFC0000000
FF8001FFC0000000
FF8001FFE000E000
FF8003FFE001FE00
FF8007FFF001FF80
FF800FFFFC07FF80
FFC01FFFFFFFFF00
FFF0FFFFFFFFFF00
7FFFFFEFFFFFFE00
7FFFFFC7FFFFFC00
3FFFFF83FFFFF800
1FFFFF01FFFFF000
0FFFFC00FFFFE000
07FFF0003FFF8000
00FFC00007FC0000
ENDCHAR
STARTCHAR 00E7
ENCODING 231
SWIDTH 587 0
DWIDTH 40 0
BBX 34 55 3 -17
BITMAP
0003FE0000
003FFFC000
00FFFFF000
01FFFFF800
03FFFFFC00
07FFFFFE00
0FFFFFFF00
1FFFFFFF80
3FFFFFFF80
3FFC07FFC0
7FF801FFC0
7FF000FFC0
7FE000FFC0
FFE0007C00
FFC0004000
FFC0000000
FFC0000000
FFC0000000
FFC0000000
FFC0000000
FFC0000000
FFC0000000
FFC0000000
FFC0000000
FFC0000000
FFE0007000
7FE0007F80
7FF000FFC0
7FF801FFC0
3FFC03FFC0
3FFFFFFF80
1FFFFFFF80
0FFFFFFF00
0FFFFFFE00
07FFFFFC00
01FFFFF800
00FFFFF000
003FFFC000
0007FE0000
0001F80000
0001F00000
0003F80000
0003FC0000
0003FE0000
0001FF0000
00007F0000
00003F0000
00003F0000
00027F0000
0003FF0000
0007FF0000
0007FE0000
0007FC0000
000FF80000
0003F00000
ENDCHAR
STARTCHAR 00E8
ENCODING 232
SWIDTH 602 0
DWIDTH 41 0
BBX 36 56 3 -1
BITMAP
007F000000
003F800000
003F800000
001FC00000
001FC00000
000FE00000
000FE00000
000FE00000
0007F00000
0007F00000
0003F80000
0003F80000
0001F80000
0000000000
0000000000
0000000000
0000000000
0003FE0000
001FFFC000
007FFFF000
01FFFFF800
03FFFFFC00
07FFFFFE00
0FFFFFFF00
1FFFFFFF80
1FFE03FF80
3FF800FFC0
3FF000FFC0
7FE0007FC0
7FE0003FE0
FFC0003FE0
FFC0003FE0
FFFFFFFFE0
FFFFFFFFE0
FFFFFFFFF0
FFFFFFFFF0
FFFFFFFFF0
FFFFFFFFF0
FFFFFFFFF0
FFC0000000
FFC0000000
FFC0000000
FFE0000000
7FE0007800
7FF0007F00
7FF800FFE0
3FFC03FFE0
1FFFFFFFC0
1FFFFFFF80
0FFFFFFF80
07FFFFFF00
03FFFFFE00
01FFFFFC00
007FFFF000
001FFFC000
0003FE0000
ENDCHAR
STARTCHAR 00E9
ENCODING 233
SWIDTH 602 0
DWIDTH 41 0
BBX 36 56 3 -1
BITMAP
000007F000
00000FE000
00000FE000
00000FC000
00001FC000
00001FC000
00003F8000
00003F8000
00007F0000
00007F0000
00007F0000
0000FE0000
0000FE0000
0000000000
0000000000
0000000000
0000000000
0003FE0000
001FFFC000
007FFFF000
01FFFFF800
03FFFFFC00
07FFFFFE00
0FFFFFFF00
1FFFFFFF80
1FFE03FF80
3FF800FFC0
3FF000FFC0
7FE0007FC0
7FE0003FE0
FFC0003FE0
FFC0003FE0
FFFFFFFFE0
FFFFFFFFE0
FFFFFFFFF0
FFFFFFFFF0
FFFFFFFFF0
FFFFFFFFF0
FFFFFFFFF0
FFC0000000
FFC0000000
FFC0000000
FFE0000000
7FE0007800
7FF0007F00
7FF800FFE0
3FFC03FFE0
1FFFFFFFC0
1FFFFFFF80
0FFFFFFF80
07FFFFFF00
03FFFFFE00
01FFFFFC00
007FFFF000
001FFFC000
0003FE0000
ENDCHAR
STARTCHAR 00EA
ENCODING 234
SWIDTH 602 0
DWIDTH 41 0
BBX 36 54 3 -1
BITMAP
0003FE0000
0007FE0000
000FFF0000
001FFF8000
003FFFC000
007FDFE000
00FF9FF000
00FF0FF800
01FE07FC00
03FC03FC00
07F801FE00
0000000000
0000000000
0000000000
0000000000
0003FE0000
001FFFC000
007FFFF000
01FFFFF800
03FFFFFC00
07FFFFFE00
0FFFFFFF00
1FFFFFFF80
1FFE03FF80
3FF800FFC0
3FF000FFC0
7FE0007FC0
7FE0003FE0
FFC0003FE0
FFC0003FE0
FFFFFFFFE0
FFFFFFFFE0
FFFFFFFFF0
FFFFFFFFF0
FFFFFFFFF0
FFFFFFFFF0
FFFFFFFFF0
FFC0000000
FFC0000000
FFC0000000
FFE0000000
7FE0007800
7FF0007F00
7FF800FFE0
3FFC03FFE0
1FFFFFFFC0
1FFFFFFF80
0FFFFFFF80
07FFFFFF00
03FFFFFE00
01FFFFFC00
007FFFF000
001FFFC000
0003FE0000
ENDCHAR
STARTCHAR 00EB
ENCODING 235
SWIDTH 602 0
DWIDTH 41 0
BBX 36 51 3 -1
BITMAP
01FE07FC00
01FE07FC00
01FE07FC00
01FE07FC00
01FE07FC00
01FE07FC00
01FE07FC00
01FE07FC00
0000000000
0000000000
0000000000
0000000000
0003FE0000
001FFFC000
007FFFF000
01FFFFF800
03FFFFFC00
07FFFFFE00
0FFFFFFF00
1FFFFFFF80
1FFE03FF80
3FF800FFC0
3FF000FFC0
7FE0007FC0
7FE0003FE0
FFC0003FE0
FFC0003FE0
FFFFFFFFE0
FFFFFFFFE0
FFFFFFFFF0
FFFFFFFFF0
FFFFFFFFF0
FFFFFFFFF0
FFFFFFFFF0
FFC0000000
FFC0000000
FFC0000000
FFE0000000
7FE0007800
7FF0007F00
7FF800FFE0
3FFC03FFE0
1FFFFFFFC0
1FFFFFFF80
0FFFFFFF80
07FFFFFF00
03FFFFFE00
01FFFFFC00
007FFFF000
001FFFC000
0003FE0000
ENDCHAR
STARTCHAR 00EC
ENCODING 236
SWIDTH 293 0
DWIDTH 20 0
BBX 14 55 1 0
BITMAP
FE00
7F00
7F00
7F00
3F80
3F80
1FC0
1FC0
0FE0
0FE0
0FE0
07F0
07F0
0000
0000
0000
0000
0000
0FFC
0FFC
0FFC
0FFC
0FFC
0FFC
0FFC
0FFC
0FFC
0FFC
0FFC
0FFC
0FFC
0FFC
0FFC
0FFC
0FFC
0FFC
0FFC
0FFC
0FFC
0FFC
0FFC
0FFC
0FFC
0FFC
0FFC
0FFC
0FFC
0FFC
0FFC
0FFC
0FFC
0FFC
0FFC
0FFC
0FFC
ENDCHAR
STARTCHAR 00ED
ENCODING 237
SWIDTH 293 0
DWIDTH 20 0
BBX 14 55 5 0
BITMAP
01FC
01F8
03F8
03F8
07F0
07F0
0FE0
0FE0
0FE0
1FC0
1FC0
3F80
3F80
0000
0000
0000
0000
0000
FFC0
FFC0
FFC0
FFC0
FFC0
FFC0
FFC0
FFC0
FFC0
FFC0
FFC0
FFC0
FFC0
FFC0
FFC0
FFC0
FFC0
FFC0
FFC0
FFC0
FFC0
FFC0
FFC0
FFC0
FFC0
FFC0
FFC0
FFC0
FFC0
FFC0
FFC0
FFC0
FFC0
FFC0
FFC0
FFC0
FFC0
ENDCHAR
STARTCHAR 00EE
ENCODING 238
SWIDTH 293 0
DWIDTH 20 0
BBX 27 53 -3 0
BITMAP
007FC000
00FFE000
01FFF000
01FFF800
03FFFC00
07FBFC00
0FF1FE00
1FE0FF00
3FE07F80
7FC07FC0
FF803FE0
00000000
00000000
00000000
00000000
00000000
00FFC000
00FFC000
00FFC000
00FFC000
00FFC000
00FFC000
00FFC000
00FFC000
00FFC000
00FFC000
00FFC000
00FFC000
00FFC000
00FFC000
00FFC000
00FFC000
00FFC000
00FFC000
00FFC000
00FFC000
00FFC000
00FFC000
00FFC000
00FFC000
00FFC000
00FFC000
00FFC000
00FFC000
00FFC000
00FFC000
00FFC000
00FFC000
00FFC000
00FFC000
00FFC000
00FFC000
00FFC000
ENDCHAR
STARTCHAR 00EF
ENCODING 239
SWIDTH 293 0
DWIDTH 20 0
BBX 22 50 -1 0
BITMAP
FF03FC
FF03FC
FF03FC
FF03FC
FF03FC
FF03FC
FF03FC
FF03FC
000000
000000
000000
000000
000000
03FF00
03FF00
03FF00
03FF00
03FF00
03FF00
03FF00
03FF00
03FF00
03FF00
03FF00
03FF00
03FF00
03FF00
03FF00
03FF00
03FF00
03FF00
03FF00
03FF00
03FF00
03FF00
03FF00
03FF00
03FF00
03FF00
03FF00
03FF00
03FF00
03FF00
03FF00
03FF00
03FF00
03FF00
03FF00
03FF00
03FF00
ENDCHAR
STARTCHAR 00F0
ENCODING 240
SWIDTH 602 0
DWIDTH 41 0
BBX 35 54 3 0
BITMAP
000000C000
000F81E000
000FF3F800
000FFFFC00
001FFFF800
001FFFF800
001FFFF000
001FFFF000
0007FFF000
0000FFF800
0001FFFC00
0001FFFC00
0003FFFE00
0001FDFE00
0000F8FF00
000070FF00
0000207F80
0000003F80
000FFC3F80
007FFFBFC0
00FFFFFFC0
03FFFFFFC0
07FFFFFFC0
0FFFFFFFC0
1FFFFFFFE0
1FFFFFFFE0
3FFC07FFE0
7FF003FFE0
7FE000FFE0
7FE000FFE0
FFC0007FE0
FFC0007FE0
FF80003FE0
FF80003FE0
FF80003FE0
FF80003FE0
FF80003FE0
FF80003FE0
FF80003FE0
FF80007FE0
FFC0007FE0
FFC0007FC0
7FE000FFC0
7FE001FFC0
3FF803FF80
3FFE0FFF80
1FFFFFFF00
1FFFFFFF00
0FFFFFFE00
07FFFFFC00
03FFFFF800
00FFFFE000
003FFF8000
0007FC0000
ENDCHAR
STARTCHAR 00F1
ENCODING 241
SWIDTH 631 0
DWIDTH 43 0
BBX 34 54 5 0
BITMAP
00F8000000
03FE01F800
07FF81F800
07FFC1F800
07FFF1F800
0FFFFFF800
0FFFFFF800
0FC3FFF800
0FC0FFF000
0FC07FF000
07C01FE000
0000030000
0000000000
0000000000
0000000000
0000000000
0001FF0000
FF0FFFE000
FF1FFFF000
FF7FFFFC00
FFFFFFFE00
FFFFFFFE00
FFFFFFFF00
FFFFFFFF00
FFFFFFFF80
FFF807FF80
FFF003FF80
FFE001FFC0
FFC001FFC0
FFC000FFC0
FFC000FFC0
FF8000FFC0
FF80007FC0
FF80007FC0
FF80007FC0
FF80007FC0
FF80007FC0
FF80007FC0
FF80007FC0
FF80007FC0
FF80007FC0
FF80007FC0
FF80007FC0
FF80007FC0
FF80007FC0
FF80007FC0
FF80007FC0
FF80007FC0
FF80007FC0
FF80007FC0
FF80007FC0
FF80007FC0
FF80007FC0
FF80007FC0
ENDCHAR
STARTCHAR 00F2
ENCODING 242
SWIDTH 631 0
DWIDTH 43 0
BBX 37 56 3 -1
BITMAP
007F000000
003F000000
003F800000
003F800000
001FC00000
001FC00000
000FE00000
000FE00000
0007E00000
0007F00000
0007F00000
0003F80000
0003F80000
0000000000
0000000000
0000000000
0000000000
0003FE0000
001FFFC000
007FFFF000
01FFFFFC00
03FFFFFE00
07FFFFFF00
0FFFFFFF80
1FFFFFFF80
1FFFFFFFC0
3FFC03FFE0
7FF800FFE0
7FF0007FF0
7FE0007FF0
FFE0003FF0
FFC0003FF0
FFC0001FF8
FFC0001FF8
FFC0001FF8
FFC0001FF8
FFC0001FF8
FFC0001FF8
FFC0001FF8
FFC0001FF8
FFC0001FF8
FFC0003FF0
FFE0003FF0
7FE0007FF0
7FF0007FF0
7FF800FFE0
3FFC03FFE0
1FFFFFFFC0
1FFFFFFF80
0FFFFFFF80
07FFFFFF00
03FFFFFE00
01FFFFFC00
007FFFF000
001FFFC000
0003FE0000
ENDCHAR
STARTCHAR 00F3
ENCODING 243
SWIDTH 631 0
DWIDTH 43 0
BBX 37 56 3 -1
BITMAP
00000FE000
00000FE000
00001FC000
00001FC000
00001F8000
00003F8000
00003F8000
00007F0000
00007F0000
0000FE0000
0000FE0000
0000FC0000
0001FC0000
0000000000
0000000000
0000000000
0000000000
0003FE0000
001FFFC000
007FFFF000
01FFFFFC00
03FFFFFE00
07FFFFFF00
0FFFFFFF80
1FFFFFFF80
1FFFFFFFC0
3FFC03FFE0
7FF800FFE0
7FF0007FF0
7FE0007FF0
FFE0003FF0
FFC0003FF0
FFC0001FF8
FFC0001FF8
FFC0001FF8
FFC0001FF8
FFC0001FF8
FFC0001FF8
FFC0001FF8
FFC0001FF8
FFC0001FF8
FFC0003FF0
FFE0003FF0
7FE0007FF0
7FF0007FF0
7FF800FFE0
3FFC03FFE0
1FFFFFFFC0
1FFFFFFF80
0FFFFFFF80
07FFFFFF00
03FFFFFE00
01FFFFFC00
007FFFF000
001FFFC000
0003FE0000
ENDCHAR
STARTCHAR 00F4
ENCODING 244
SWIDTH 631 0
DWIDTH 43 0
BBX 37 54 3 -1
BITMAP
0003FE0000
0007FF0000
000FFF0000
001FFF8000
003FFFC000
007FDFE000
007F8FF000
00FF0FF800
01FE07FC00
03FC03FE00
07FC01FE00
0000000000
0000000000
0000000000
0000000000
0003FE0000
001FFFC000
007FFFF000
01FFFFFC00
03FFFFFE00
07FFFFFF00
0FFFFFFF80
1FFFFFFF80
1FFFFFFFC0
3FFC03FFE0
7FF800FFE0
7FF0007FF0
7FE0007FF0
FFE0003FF0
FFC0003FF0
FFC0001FF8
FFC0001FF8
FFC0001FF8
FFC0001FF8
FFC0001FF8
FFC0001FF8
FFC0001FF8
FFC0001FF8
FFC0001FF8
FFC0003FF0
FFE0003FF0
7FE0007FF0
7FF0007FF0
7FF800FFE0
3FFC03FFE0
1FFFFFFFC0
1FFFFFFF80
0FFFFFFF80
07FFFFFF00
03FFFFFE00
01FFFFFC00
007FFFF000
001FFFC000
0003FE0000
ENDCHAR
STARTCHAR 00F5
ENCODING 245
SWIDTH 631 0
DWIDTH 43 0
BBX 37 55 3 -1
BITMAP
003E000000
00FF807E00
01FFE07E00
01FFF07E00
03FFFCFE00
03FFFFFE00
03FFFFFE00
03F0FFFC00
03F07FFC00
03F01FF800
03F00FF000
0000018000
0000000000
0000000000
0000000000
0000000000
0003FE0000
001FFFC000
007FFFF000
01FFFFFC00
03FFFFFE00
07FFFFFF00
0FFFFFFF80
1FFFFFFF80
1FFFFFFFC0
3FFC03FFE0
7FF800FFE0
7FF0007FF0
7FE0007FF0
FFE0003FF0
FFC0003FF0
FFC0001FF8
FFC0001FF8
FFC0001FF8
FFC0001FF8
FFC0001FF8
FFC0001FF8
FFC0001FF8
FFC0001FF8
FFC0001FF8
FFC0003FF0
FFE0003FF0
7FE0007FF0
7FF0007FF0
7FF800FFE0
3FFC03FFE0
1FFFFFFFC0
1FFFFFFF80
0FFFFFFF80
07FFFFFF00
03FFFFFE00
01FFFFFC00
007FFFF000
001FFFC000
0003FE0000
ENDCHAR
STARTCHAR 00F6
ENCODING 246
SWIDTH 631 0
DWIDTH 43 0
BBX 37 51 3 -1
BITMAP
01FE07FC00
01FE07FC00
01FE07FC00
01FE07FC00
01FE07FC00
01FE07FC00
01FE07FC00
01FE07FC00
0000000000
0000000000
0000000000
0000000000
0003FE0000
001FFFC000
007FFFF000
01FFFFFC00
03FFFFFE00
07FFFFFF00
0FFFFFFF80
1FFFFFFF80
1FFFFFFFC0
3FFC03FFE0
7FF800FFE0
7FF0007FF0
7FE0007FF0
FFE0003FF0
FFC0003FF0
FFC0001FF8
FFC0001FF8
FFC0001FF8
FFC0001FF8
FFC0001FF8
FFC0001FF8
FFC0001FF8
FFC0001FF8
FFC0001FF8
FFC0003FF0
FFE0003FF0
7FE0007FF0
7FF0007FF0
7FF800FFE0
3FFC03FFE0
1FFFFFFFC0
1FFFFFFF80
0FFFFFFF80
07FFFFFF00
03FFFFFE00
01FFFFFC00
007FFFF000
001FFFC000
0003FE0000
ENDCHAR
STARTCHAR 00F7
ENCODING 247
SWIDTH 543 0
DWIDTH 37 0
BBX 29 31 4 9
BITMAP
003FE000
003FE000
003FE000
003FE000
003FE000
003FE000
003FE000
003FE000
00000000
00000000
00000000
00000000
FFFFFFF8
FFFFFFF8
FFFFFFF8
FFFFFFF8
FFFFFFF8
FFFFFFF8
FFFFFFF8
00000000
00000000
00000000
00000000
003FE000
003FE000
003FE000
003FE000
003FE000
003FE000
003FE000
003FE000
ENDCHAR
STARTCHAR 00F8
ENCODING 248
SWIDTH 631 0
DWIDTH 43 0
BBX 38 39 2 -1
BITMAP
0001FF0080
000FFFE1C0
003FFFFBE0
00FFFFFFF0
01FFFFFFF8
03FFFFFFFC
07FFFFFFFC
0FFFFFFFF8
0FFFFFFFF0
1FFE01FFF0
3FFC00FFF0
3FF801FFF8
3FF003FFF8
7FF007FFF8
7FE00FFFF8
7FE01FFFFC
7FE03FEFFC
7FE07FCFFC
7FE0FF8FFC
7FE1FF0FFC
7FE3FE0FFC
7FE7FC0FFC
7FEFF80FFC
7FFFF00FFC
7FFFE01FF8
7FFFC01FF8
3FFF803FF8
3FFF003FF8
3FFE007FF0
1FFE01FFF0
3FFFFFFFE0
7FFFFFFFC0
FFFFFFFFC0
FFFFFFFF80
7FFFFFFF00
3FFFFFFE00
1FFFFFF800
0F0FFFE000
0601FF0000
ENDCHAR
STARTCHAR 00F9
ENCODING 249
SWIDTH 631 0
DWIDTH 43 0
BBX 35 56 4 -1
BITMAP
00FE000000
007F000000
007F000000
003F800000
003F800000
001F800000
001FC00000
001FC00000
000FE00000
000FE00000
0007F00000
0007F00000
0003F00000
0000000000
0000000000
0000000000
0000000000
0000000000
FF80007FE0
FF80007FE0
FF80007FE0
FF80007FE0
FF80007FE0
FF80007FE0
FF80007FE0
FF80007FE0
FF80007FE0
FF80007FE0
FF80007FE0
FF80007FE0
FF80007FE0
FF80007FE0
FF80007FE0
FF80007FE0
FF80007FE0
FF80007FE0
FF80007FE0
FF80007FE0
FFC0007FE0
FFC0007FE0
FFC0007FE0
FFC0007FE0
FFC000FFE0
FFE000FFE0
7FE001FFE0
7FF003FFE0
7FFC07FFE0
7FFFFFFFE0
3FFFFFFFE0
3FFFFFFFE0
1FFFFFFFE0
0FFFFFFFE0
07FFFFBFE0
03FFFF3FE0
01FFFC3FE0
003FE00000
ENDCHAR
STARTCHAR 00FA
ENCODING 250
SWIDTH 631 0
DWIDTH 43 0
BBX 35 56 4 -1
BITMAP
00001FC000
00003F8000
00003F8000
00007F0000
00007F0000
00007E0000
0000FE0000
0000FE0000
0001FC0000
0001FC0000
0003F80000
0003F80000
0003F80000
0000000000
0000000000
0000000000
0000000000
0000000000
FF80007FE0
FF80007FE0
FF80007FE0
FF80007FE0
FF80007FE0
FF80007FE0
FF80007FE0
FF80007FE0
FF80007FE0
FF80007FE0
FF80007FE0
FF80007FE0
FF80007FE0
FF80007FE0
FF80007FE0
FF80007FE0
FF80007FE0
FF80007FE0
FF80007FE0
FF80007FE0
FFC0007FE0
FFC0007FE0
FFC0007FE0
FFC0007FE0
FFC000FFE0
FFE000FFE0
7FE001FFE0
7FF003FFE0
7FFC07FFE0
7FFFFFFFE0
3FFFFFFFE0
3FFFFFFFE0
1FFFFFFFE0
0FFFFFFFE0
07FFFFBFE0
03FFFF3FE0
01FFFC3FE0
003FE00000
ENDCHAR
STARTCHAR 00FB
ENCODING 251
SWIDTH 631 0
DWIDTH 43 0
BBX 35 54 4 -1
BITMAP
0007FC0000
000FFC0000
001FFE0000
003FFF0000
007FFF8000
00FFBFC000
01FF3FE000
01FE1FF000
03FC0FF800
07F807F800
0FF003FC00
0000000000
0000000000
0000000000
0000000000
0000000000
FF80007FE0
FF80007FE0
FF80007FE0
FF80007FE0
FF80007FE0
FF80007FE0
FF80007FE0
FF80007FE0
FF80007FE0
FF80007FE0
FF80007FE0
FF80007FE0
FF80007FE0
FF80007FE0
FF80007FE0
FF80007FE0
FF80007FE0
FF80007FE0
FF80007FE0
FF80007FE0
FFC0007FE0
FFC0007FE0
FFC0007FE0
FFC0007FE0
FFC000FFE0
FFE000FFE0
7FE001FFE0
7FF003FFE0
7FFC07FFE0
7FFFFFFFE0
3FFFFFFFE0
3FFFFFFFE0
1FFFFFFFE0
0FFFFFFFE0
07FFFFBFE0
03FFFF3FE0
01FFFC3FE0
003FE00000
ENDCHAR
STARTCHAR 00FC
ENCODING 252
SWIDTH 631 0
DWIDTH 43 0
BBX 35 51 4 -1
BITMAP
03FC0FF800
03FC0FF800
03FC0FF800
03FC0FF800
03FC0FF800
03FC0FF800
03FC0FF800
03FC0FF800
0000000000
0000000000
0000000000
0000000000
0000000000
FF80007FE0
FF80007FE0
FF80007FE0
FF80007FE0
FF80007FE0
FF80007FE0
FF80007FE0
FF80007FE0
FF80007FE0
FF80007FE0
FF80007FE0
FF80007FE0
FF80007FE0
FF80007FE0
FF80007FE0
FF80007FE0
FF80007FE0
FF80007FE0
FF80007FE0
FF80007FE0
FFC0007FE0
FFC0007FE0
FFC0007FE0
FFC0007FE0
FFC000FFE0
FFE000FFE0
7FE001FFE0
7FF003FFE0
7FFC07FFE0
7FFFFFFFE0
3FFFFFFFE0
3FFFFFFFE0
1FFFFFFFE0
0FFFFFFFE0
07FFFFBFE0
03FFFF3FE0
01FFFC3FE0
003FE00000
ENDCHAR
STARTCHAR 00FD
ENCODING 253
SWIDTH 573 0
DWIDTH 39 0
BBX 38 71 1 -16
BITMAP
000007F000
00000FE000
00000FE000
00000FC000
00001FC000
00001FC000
00003F8000
00003F8000
00007F0000
00007F0000
00007E0000
0000FE0000
0000FE0000
0000000000
0000000000
0000000000
0000000000
0000000000
FF80000FFC
FFC0000FF8
7FC0000FF8
7FE0001FF0
7FE0001FF0
3FE0003FF0
3FF0003FE0
1FF0003FE0
1FF8007FC0
0FF8007FC0
0FF800FFC0
0FFC00FF80
07FC00FF80
07FC01FF80
03FE01FF00
03FE01FF00
03FF03FE00
01FF03FE00
01FF07FE00
00FF87FC00
00FF87FC00
00FFCFF800
007FCFF800
007FCFF800
003FFFF000
003FFFF000
003FFFE000
001FFFE000
001FFFE000
000FFFC000
000FFFC000
000FFF8000
0007FF8000
0007FF8000
0003FF0000
0003FF0000
0003FF0000
0003FE0000
0003FE0000
0007FC0000
0007FC0000
0007FC0000
000FF80000
000FF80000
000FF00000
001FF00000
001FF00000
003FE00000
003FE00000
003FC00000
007FC00000
007FC00000
007F800000
ENDCHAR
STARTCHAR 00FE
ENCODING 254
SWIDTH 617 0
DWIDTH 42 0
BBX 35 65 5 -16
BITMAP
FF80000000
FF80000000
FF80000000
FF80000000
FF80000000
FF80000000
FF80000000
FF80000000
FF80000000
FF80000000
FF80000000
FF87FC0000
FFBFFF8000
FFFFFFC000
FFFFFFF000
FFFFFFF800
FFFFFFFC00
FFFFFFFE00
FFFFFFFE00
FFFC3FFF00
FFF007FF80
FFC003FF80
FFC001FF80
FF8001FFC0
FF8000FFC0
FF0000FFC0
FF0000FFC0
FF00007FE0
FF00007FE0
FF00007FE0
FF00007FE0
FF00007FE0
FF00007FE0
FF00007FE0
FF0000FFC0
FF0000FFC0
FF8000FFC0
FF8001FFC0
FFC001FF80
FFC003FF80
FFF007FF80
FFFC3FFF00
FFFFFFFE00
FFFFFFFE00
FFFFFFFC00
FFFFFFF800
FFFFFFF000
FFFFFFE000
FFBFFF8000
FF83FC0000
FF80000000
FF80000000
FF80000000
FF80000000
FF80000000
FF80000000
FF80000000
FF80000000
FF80000000
FF80000000
FF80000000
FF80000000
FF80000000
FF80000000
FF80000000
ENDCHAR
STARTCHAR 00FF
ENCODING 255
SWIDTH 573 0
DWIDTH 39 0
BBX 38 66 1 -16
BITMAP
00FF03FC00
00FF03FC00
00FF03FC00
00FF03FC00
00FF03FC00
00FF03FC00
00FF03FC00
00FF03FC00
0000000000
0000000000
0000000000
0000000000
0000000000
FF80000FFC
FFC0000FF8
7FC0000FF8
7FE0001FF0
7FE0001FF0
3FE0003FF0
3FF0003FE0
1FF0003FE0
1FF8007FC0
0FF8007FC0
0FF800FFC0
0FFC00FF80
07FC00FF80
07FC01FF80
03FE01FF00
03FE01FF00
03FF03FE00
01FF03FE00
01FF07FE00
00FF87FC00
00FF87FC00
00FFCFF800
007FCFF800
007FCFF800
003FFFF000
003FFFF000
003FFFE000
001FFFE000
001FFFE000
000FFFC000
000FFFC000
000FFF8000
0007FF8000
0007FF8000
0003FF0000
0003FF0000
0003FF0000
0003FE0000
0003FE0000
0007FC0000
0007FC0000
0007FC0000
000FF80000
000FF80000
000FF00000
001FF00000
001FF00000
003FE00000
003FE00000
003FC00000
007FC00000
007FC00000
007F800000
ENDCHAR
ENDFONT
